<svg width="140.000000" height="40.000000" viewBox="0 0 140 40" fill="none" xmlns="http://www.w3.org/2000/svg" xmlns:xlink="http://www.w3.org/1999/xlink">
	<desc>
			Created with Pixso.
	</desc>
	<defs/>
	<path id="GoCorona" d="M48.51 25.5Q49.75 26.07 51.46 26.07Q53.17 26.07 54.45 25.48Q55.41 25.04 56.05 24.32Q56.26 24.08 56.44 23.8Q56.44 23.79 56.45 23.79Q57.15 22.69 57.15 21.15L57.15 19.1Q57.15 18.98 57.1 18.88Q57.07 18.82 57.02 18.77Q56.97 18.71 56.9 18.68Q56.81 18.63 56.69 18.63L52.16 18.63Q52.04 18.63 51.95 18.68Q51.88 18.71 51.83 18.77Q51.79 18.81 51.76 18.87Q51.71 18.97 51.71 19.1L51.71 20.43Q51.71 20.56 51.76 20.66Q51.79 20.72 51.83 20.77Q51.88 20.82 51.94 20.85Q52.03 20.9 52.16 20.9L53.85 20.9L53.85 21.24Q53.85 22.01 53.54 22.51Q53.39 22.76 53.18 22.95Q52.97 23.12 52.71 23.24Q52.18 23.47 51.51 23.47Q50.6 23.47 50.02 23.04Q49.94 22.98 49.87 22.91Q49.26 22.36 49.21 21.1Q49.15 19.51 49.21 17.97Q49.26 16.78 49.86 16.24Q49.92 16.18 49.98 16.13Q50.55 15.7 51.46 15.7Q52.14 15.7 52.56 15.91Q52.99 16.13 53.23 16.43Q53.47 16.72 53.6 17Q53.67 17.12 53.77 17.18Q53.87 17.25 54.07 17.25L56.69 17.25Q56.78 17.25 56.86 17.21Q56.92 17.19 56.97 17.14Q57.03 17.09 57.06 17.02Q57.09 16.95 57.09 16.87Q57.07 16.22 56.69 15.55Q56.32 14.89 55.6 14.33Q54.9 13.77 53.85 13.44Q52.81 13.11 51.46 13.11Q49.79 13.11 48.54 13.66Q47.64 14.07 47.03 14.74Q46.8 15 46.61 15.29Q45.93 16.34 45.86 17.87Q45.84 18.67 45.84 19.54Q45.84 20.41 45.86 21.19Q45.93 22.75 46.6 23.84Q46.83 24.21 47.12 24.52Q47.69 25.12 48.51 25.5ZM60.89 25.58Q61.93 26.07 63.44 26.07Q64.97 26.07 66.01 25.58Q66.75 25.23 67.25 24.66Q67.44 24.44 67.59 24.18Q68.14 23.27 68.22 22.01Q68.23 21.65 68.23 21.2Q68.23 20.74 68.22 20.4Q68.14 19.12 67.57 18.22Q67.4 17.96 67.2 17.74Q66.69 17.18 65.95 16.83Q64.92 16.34 63.44 16.34Q61.99 16.34 60.95 16.83Q60.21 17.18 59.71 17.74Q59.5 17.96 59.34 18.22Q58.76 19.12 58.69 20.4Q58.68 20.74 58.68 21.2Q58.68 21.65 58.69 22.01Q58.76 23.27 59.31 24.18Q59.47 24.45 59.67 24.67Q60.16 25.23 60.89 25.58ZM64.49 23.53Q64.12 23.87 63.44 23.87Q62.84 23.87 62.47 23.57Q62.37 23.49 62.28 23.38Q61.9 22.9 61.86 21.93Q61.84 21.65 61.84 21.2Q61.84 20.76 61.86 20.48Q61.9 19.53 62.28 19.04Q62.38 18.92 62.5 18.82Q62.86 18.54 63.44 18.54Q64.11 18.54 64.47 18.87Q64.56 18.95 64.63 19.04Q65 19.53 65.05 20.48Q65.07 20.76 65.07 21.2Q65.07 21.65 65.05 21.93Q65 22.9 64.63 23.38Q64.57 23.46 64.49 23.53Z" fill="#000000" fill-opacity="1.000000" fill-rule="evenodd"/>
	<path id="GoCorona" d="M72.46 25.51Q73.69 26.07 75.38 26.07Q76.57 26.07 77.58 25.77Q78.58 25.47 79.34 24.91Q79.89 24.49 80.26 23.96Q80.4 23.76 80.51 23.54Q80.54 23.49 80.56 23.45Q80.94 22.68 80.96 21.73Q80.97 21.64 80.94 21.57Q80.91 21.51 80.86 21.46Q80.81 21.41 80.74 21.38Q80.67 21.35 80.58 21.35L78.15 21.35Q77.92 21.35 77.78 21.45Q77.65 21.55 77.58 21.82Q77.34 22.75 76.77 23.11Q76.19 23.47 75.36 23.47Q74.51 23.47 73.96 23.06Q73.87 23 73.8 22.92Q73.22 22.37 73.16 21.1Q73.11 19.55 73.16 18.07Q73.22 16.8 73.8 16.25Q73.87 16.17 73.96 16.11Q74.51 15.7 75.36 15.7Q76.19 15.7 76.76 16.05Q77.32 16.4 77.58 17.35Q77.66 17.62 77.79 17.72Q77.92 17.82 78.15 17.82L80.58 17.82Q80.68 17.82 80.75 17.79Q80.81 17.76 80.86 17.72Q80.92 17.66 80.94 17.6Q80.97 17.53 80.96 17.44Q80.94 16.48 80.55 15.71Q80.53 15.67 80.51 15.64Q80.39 15.4 80.23 15.18Q79.87 14.66 79.34 14.27Q78.58 13.7 77.58 13.4Q76.57 13.11 75.38 13.11Q73.7 13.11 72.48 13.66Q71.73 14 71.19 14.55Q70.84 14.89 70.57 15.32Q69.89 16.42 69.82 17.98Q69.8 18.76 69.8 19.61Q69.8 20.45 69.82 21.19Q69.89 22.79 70.56 23.87Q70.79 24.24 71.09 24.55Q71.66 25.14 72.46 25.51ZM84.53 25.58Q85.57 26.07 87.08 26.07Q88.61 26.07 89.64 25.58Q90.39 25.23 90.88 24.66Q91.07 24.44 91.23 24.18Q91.78 23.27 91.85 22.01Q91.87 21.65 91.87 21.2Q91.87 20.74 91.85 20.4Q91.78 19.12 91.2 18.22Q91.04 17.96 90.83 17.74Q90.33 17.18 89.59 16.83Q88.55 16.34 87.08 16.34Q85.62 16.34 84.59 16.83Q83.84 17.18 83.34 17.74Q83.14 17.96 82.97 18.22Q82.4 19.12 82.33 20.4Q82.31 20.74 82.31 21.2Q82.31 21.65 82.33 22.01Q82.4 23.27 82.95 24.18Q83.1 24.45 83.3 24.67Q83.79 25.23 84.53 25.58ZM103.63 25.58Q104.66 26.07 106.18 26.07Q107.71 26.07 108.74 25.58Q109.49 25.23 109.98 24.66Q110.17 24.44 110.32 24.18Q110.87 23.27 110.95 22.01Q110.97 21.65 110.97 21.2Q110.97 20.74 110.95 20.4Q110.87 19.12 110.3 18.22Q110.13 17.96 109.93 17.74Q109.43 17.18 108.69 16.83Q107.65 16.34 106.18 16.34Q104.72 16.34 103.68 16.83Q102.94 17.18 102.44 17.74Q102.24 17.96 102.07 18.22Q101.5 19.12 101.43 20.4Q101.41 20.74 101.41 21.2Q101.41 21.65 101.43 22.01Q101.5 23.27 102.05 24.18Q102.2 24.45 102.4 24.67Q102.89 25.23 103.63 25.58ZM112.98 25.83Q113.07 25.89 113.2 25.89L115.45 25.89Q115.53 25.89 115.6 25.86Q115.69 25.83 115.76 25.75Q115.84 25.67 115.88 25.57Q115.9 25.51 115.9 25.44L115.9 20.52Q115.9 19.72 116.29 19.26Q116.31 19.24 116.33 19.22Q116.46 19.09 116.6 19Q116.98 18.76 117.52 18.76Q118.18 18.76 118.58 19.09Q118.65 19.15 118.71 19.22Q119.12 19.68 119.12 20.52L119.12 25.44Q119.12 25.51 119.14 25.58Q119.18 25.67 119.25 25.75Q119.33 25.83 119.43 25.86Q119.5 25.89 119.57 25.89L121.84 25.89Q121.96 25.89 122.06 25.83Q122.11 25.8 122.16 25.75Q122.23 25.68 122.27 25.59Q122.29 25.52 122.29 25.44L122.29 20.41Q122.29 19.08 121.83 18.18Q121.48 17.5 120.94 17.07Q120.77 16.93 120.57 16.81Q120.49 16.77 120.41 16.73Q119.66 16.34 118.73 16.34Q117.7 16.34 116.94 16.72Q116.19 17.1 115.74 17.66L115.74 16.97Q115.74 16.85 115.69 16.76Q115.65 16.7 115.6 16.65Q115.55 16.6 115.48 16.57Q115.39 16.52 115.27 16.52L113.2 16.52Q113.07 16.52 112.97 16.58Q112.92 16.61 112.87 16.65Q112.84 16.69 112.81 16.73Q112.75 16.83 112.75 16.97L112.75 25.44Q112.75 25.52 112.78 25.59Q112.81 25.68 112.87 25.75Q112.92 25.8 112.98 25.83ZM125.39 25.7Q126.16 26.07 127.13 26.07Q127.83 26.07 128.36 25.89Q128.89 25.72 129.29 25.44Q129.68 25.15 129.92 24.8L129.92 25.44Q129.92 25.52 129.95 25.59Q129.98 25.68 130.04 25.75Q130.09 25.8 130.15 25.83Q130.25 25.89 130.37 25.89L132.46 25.89Q132.54 25.89 132.61 25.86Q132.7 25.83 132.77 25.75Q132.85 25.67 132.89 25.57Q132.91 25.51 132.91 25.44L132.91 19.96Q132.91 19.17 132.66 18.52Q132.56 18.23 132.4 17.97Q132.19 17.65 131.9 17.37Q131.38 16.89 130.55 16.62Q129.72 16.34 128.57 16.34Q127.43 16.34 126.64 16.62Q125.85 16.89 125.35 17.3Q124.84 17.71 124.6 18.14Q124.36 18.56 124.36 18.88Q124.35 18.97 124.38 19.05Q124.4 19.11 124.45 19.17Q124.46 19.18 124.48 19.2Q124.59 19.28 124.75 19.28L126.77 19.28Q126.92 19.28 127.03 19.22Q127.14 19.16 127.22 19.05Q127.34 18.82 127.52 18.65Q127.61 18.57 127.71 18.51Q128.03 18.31 128.53 18.31Q129.25 18.31 129.52 18.65Q129.79 18.99 129.79 19.64L129.79 19.89L127.54 20.23Q125.82 20.5 124.77 21.25Q124.24 21.63 123.98 22.14Q123.73 22.64 123.73 23.27Q123.73 23.71 123.86 24.1Q123.97 24.42 124.17 24.7Q124.23 24.78 124.3 24.86Q124.73 25.38 125.39 25.7ZM93.88 25.83Q93.98 25.89 94.1 25.89L96.33 25.89Q96.45 25.89 96.54 25.84Q96.61 25.81 96.66 25.75Q96.74 25.67 96.78 25.57Q96.8 25.51 96.8 25.44L96.8 20.83Q96.8 20.17 97.12 19.77Q97.16 19.73 97.2 19.68Q97.24 19.64 97.29 19.6Q97.69 19.28 98.35 19.28L100.09 19.28Q100.21 19.28 100.31 19.23Q100.37 19.2 100.41 19.14Q100.49 19.07 100.52 18.98Q100.54 18.91 100.54 18.83L100.54 16.97Q100.54 16.84 100.48 16.74Q100.46 16.69 100.41 16.65Q100.37 16.61 100.33 16.58Q100.23 16.52 100.09 16.52L99.3 16.52Q98.45 16.52 97.78 16.83Q97.39 17.01 97.08 17.26Q96.84 17.45 96.64 17.69L96.64 16.97Q96.64 16.91 96.62 16.86Q96.59 16.75 96.5 16.66Q96.44 16.6 96.37 16.57Q96.28 16.52 96.17 16.52L94.1 16.52Q93.98 16.52 93.89 16.57Q93.83 16.61 93.77 16.66Q93.7 16.74 93.67 16.83Q93.65 16.9 93.65 16.97L93.65 25.44Q93.65 25.52 93.68 25.59Q93.71 25.68 93.77 25.75Q93.82 25.8 93.88 25.83ZM88.13 23.53Q87.76 23.87 87.08 23.87Q86.47 23.87 86.11 23.57Q86 23.49 85.92 23.38Q85.53 22.9 85.5 21.93Q85.48 21.65 85.48 21.2Q85.48 20.76 85.5 20.48Q85.53 19.53 85.92 19.04Q86.01 18.92 86.13 18.82Q86.49 18.54 87.08 18.54Q87.74 18.54 88.11 18.87Q88.19 18.95 88.26 19.04Q88.63 19.53 88.68 20.48Q88.7 20.76 88.7 21.2Q88.7 21.65 88.68 21.93Q88.63 22.9 88.26 23.38Q88.2 23.46 88.13 23.53ZM107.23 23.53Q106.86 23.87 106.18 23.87Q105.57 23.87 105.2 23.57Q105.1 23.49 105.02 23.38Q104.63 22.9 104.59 21.93Q104.58 21.65 104.58 21.2Q104.58 20.76 104.59 20.48Q104.63 19.53 105.02 19.04Q105.11 18.92 105.23 18.82Q105.59 18.54 106.18 18.54Q106.84 18.54 107.21 18.87Q107.29 18.95 107.36 19.04Q107.73 19.53 107.78 20.48Q107.8 20.76 107.8 21.2Q107.8 21.65 107.78 21.93Q107.73 22.9 107.36 23.38Q107.3 23.46 107.23 23.53ZM128.81 23.84Q128.43 24.01 127.97 24.01Q127.63 24.01 127.33 23.9Q127.04 23.78 126.86 23.57L126.86 23.56Q126.79 23.49 126.75 23.4Q126.68 23.24 126.68 23.04Q126.68 22.94 126.7 22.85Q126.78 22.57 127.07 22.35Q127.45 22.05 128.3 21.91L129.83 21.64L129.83 21.89Q129.83 22.61 129.58 23.09Q129.39 23.47 129.09 23.68Q129.01 23.74 128.92 23.79Q128.87 23.82 128.81 23.84Z" fill="#EC5863" fill-opacity="1.000000" fill-rule="evenodd"/>
	<path id="Vector" d="M14.22 4.98C15.64 4.48 17.21 5.16 17.71 6.49C18.1 7.51 17.75 8.61 16.93 9.3L17.38 10.51L18.08 11.33C18.24 11.51 18.49 11.6 18.73 11.57C19.39 11.49 20.05 11.49 20.69 11.56C20.91 11.58 21.13 11.51 21.29 11.35L21.8 10.86L22.17 9.77C21.85 9.33 21.74 8.75 21.93 8.19C22.25 7.26 23.31 6.77 24.24 7.16C25.05 7.49 25.48 8.38 25.25 9.22C25.1 9.75 24.72 10.14 24.25 10.34L23.84 11.55L23.93 12.22C23.96 12.45 24.1 12.65 24.3 12.77C24.97 13.18 25.58 13.68 26.13 14.25C26.31 14.44 26.58 14.53 26.84 14.48L28.18 14.21L29.69 13.37C29.7 12.62 30.1 11.9 30.8 11.51C31.86 10.93 33.2 11.32 33.76 12.4C34.27 13.37 33.95 14.59 33.03 15.18C32.31 15.65 31.43 15.63 30.75 15.24L29.23 16.08L28.38 16.98C28.15 17.22 28.07 17.57 28.15 17.89C28.16 17.89 28.16 17.89 28.16 17.89C28.31 18.45 28.4 19 28.43 19.55C28.45 19.88 28.64 20.18 28.93 20.33L30.04 20.93L32.24 21.35C32.63 21.01 33.16 20.84 33.71 20.95C34.69 21.13 35.32 22.1 35.07 23.07C34.85 23.91 34.03 24.47 33.17 24.36C32.58 24.28 32.11 23.93 31.85 23.45L29.64 23.04L28.27 23.2C28.02 23.24 27.8 23.39 27.7 23.62C27.29 24.53 26.73 25.37 26.03 26.09C25.86 26.27 25.79 26.53 25.86 26.77L26.2 28.08L27.03 29.39C27.95 29.25 28.91 29.65 29.45 30.48C30.16 31.6 29.84 33.08 28.72 33.8C27.61 34.52 26.1 34.21 25.37 33.1C24.86 32.33 24.85 31.38 25.27 30.62L24.38 29.23L23.28 28.33C23.12 28.2 22.9 28.16 22.7 28.23C22.48 28.31 22.26 28.38 22.03 28.44C20.79 28.77 19.54 28.82 18.34 28.61C18.17 28.59 17.99 28.64 17.86 28.75L17.27 29.26L16.83 30.33C17.13 30.79 17.2 31.37 16.98 31.91C16.61 32.83 15.53 33.26 14.62 32.82C13.84 32.45 13.45 31.53 13.73 30.71C13.91 30.19 14.31 29.81 14.79 29.64L15.27 28.45L15.18 27.41C14.31 26.87 13.53 26.17 12.9 25.34L11.41 25.49L10.01 26.18C10.02 27.11 9.54 28 8.69 28.43C7.5 29.04 6.03 28.5 5.42 27.23C4.8 25.96 5.27 24.44 6.47 23.83C7.36 23.38 8.41 23.56 9.13 24.22L10.45 23.57L11.36 22.59C11.42 22.53 11.45 22.44 11.42 22.35L11.42 22.35C11 20.79 11.04 19.2 11.47 17.75C11.49 17.67 11.47 17.58 11.42 17.52L10.63 16.58L8.93 15.69C8.46 15.89 7.91 15.89 7.42 15.64C6.54 15.18 6.22 14.07 6.75 13.21C7.21 12.46 8.19 12.17 8.99 12.56C9.51 12.81 9.84 13.27 9.94 13.79L11.63 14.68L12.84 14.79C12.93 14.8 13.01 14.77 13.06 14.7C13.61 14.03 14.26 13.43 15 12.94C15.21 12.81 15.33 12.58 15.34 12.34L15.35 11.25L14.88 9.96C13.85 9.88 12.92 9.26 12.55 8.3C12.05 6.97 12.79 5.48 14.22 4.98Z" fill="#EC5863" fill-opacity="1.000000" fill-rule="nonzero"/>
	<path id="Vector" d="M18.13 13.96C21.55 13.05 25.07 15.07 25.98 18.47C26.9 21.87 24.87 25.37 21.45 26.28C18.03 27.2 14.51 25.18 13.59 21.77C12.68 18.37 14.71 14.87 18.13 13.96Z" fill="#F58A97" fill-opacity="1.000000" fill-rule="evenodd"/>
	<path id="Vector" d="M20.94 24.41C17.84 25.23 14.66 23.65 13.41 20.82C13.45 21.13 13.51 21.45 13.59 21.77C14.51 25.18 18.03 27.2 21.45 26.28C24.87 25.37 26.9 21.87 25.98 18.47C25.9 18.15 25.79 17.85 25.66 17.55C26 20.63 24.04 23.58 20.94 24.41Z" fill="#F07281" fill-opacity="1.000000" fill-rule="nonzero"/>
	<path id="Vector" d="M9.08 32.21C10.06 31.95 11.06 32.52 11.32 33.49C11.58 34.46 11 35.46 10.03 35.72C9.05 35.98 8.05 35.4 7.79 34.43C7.53 33.46 8.11 32.47 9.08 32.21Z" fill="#EB5569" fill-opacity="1.000000" fill-rule="evenodd"/>
	<path id="Vector" d="M32.63 27.08C33.27 26.91 33.93 27.29 34.11 27.93C34.28 28.57 33.9 29.23 33.25 29.4C32.61 29.57 31.95 29.19 31.77 28.55C31.6 27.91 31.98 27.26 32.63 27.08Z" fill="#EB5569" fill-opacity="1.000000" fill-rule="evenodd"/>
	<path id="Vector" d="M28.66 4.75C29.61 4.49 30.58 5.05 30.84 6C31.09 6.94 30.53 7.91 29.58 8.16C28.63 8.41 27.66 7.85 27.4 6.91C27.15 5.97 27.71 5 28.66 4.75Z" fill="#EB5569" fill-opacity="1.000000" fill-rule="evenodd"/>
	<path id="Vector" d="M18.16 20.88C19.05 20.64 19.95 21.16 20.19 22.04C20.43 22.92 19.9 23.83 19.02 24.06C18.14 24.3 17.23 23.77 16.99 22.9C16.75 22.02 17.28 21.11 18.16 20.88Z" fill="#EB5569" fill-opacity="1.000000" fill-rule="evenodd"/>
	<path id="Vector" d="M22.92 18.78C23.53 18.62 24.14 18.98 24.31 19.58C24.47 20.18 24.11 20.79 23.51 20.95C22.91 21.11 22.29 20.76 22.13 20.16C21.97 19.56 22.32 18.94 22.92 18.78Z" fill="#EB5569" fill-opacity="1.000000" fill-rule="evenodd"/>
	<path id="Vector" d="M18.79 16.43C19.3 16.29 19.82 16.59 19.95 17.09C20.09 17.59 19.79 18.11 19.28 18.24C18.78 18.38 18.26 18.08 18.12 17.58C17.99 17.08 18.29 16.56 18.79 16.43Z" fill="#EB5569" fill-opacity="1.000000" fill-rule="evenodd"/>
</svg>
