<svg width="64.000000" height="72.000000" viewBox="0 0 64 72" fill="none" xmlns="http://www.w3.org/2000/svg" xmlns:xlink="http://www.w3.org/1999/xlink">
	<desc>
			Created with Pixso.
	</desc>
	<defs/>
	<path id="Vector" d="M63.48 24.61L42.05 24.61L42.05 71.41L34.9 71.41L34.9 49.81L27.76 49.81L27.76 71.41L20.62 71.41L20.62 24.61L-0.81 24.61L-0.81 17.41L63.48 17.41L63.48 24.61ZM31.33 -0.59C33.23 -0.59 35.04 0.16 36.38 1.51C37.72 2.86 38.48 4.7 38.48 6.61C38.48 8.51 37.72 10.35 36.38 11.7C35.04 13.05 33.23 13.81 31.33 13.81C29.44 13.81 27.62 13.05 26.28 11.7C24.94 10.35 24.19 8.51 24.19 6.61C24.19 2.61 27.37 -0.59 31.33 -0.59Z" fill="#EC5863" fill-opacity="1.000000" fill-rule="nonzero"/>
</svg>
