<svg width="67.000000" height="72.000000" viewBox="0 0 67 72" fill="none" xmlns="http://www.w3.org/2000/svg" xmlns:xlink="http://www.w3.org/1999/xlink">
	<desc>
			Created with Pixso.
	</desc>
	<defs/>
	<path id="Vector" d="M32.72 -0.37C26.88 -0.37 23.39 0.52 21.17 1.62C20.06 2.18 19.27 2.76 18.73 3.36C18.2 3.95 17.86 4.83 17.86 4.83C17.78 5.05 17.72 5.28 17.69 5.52L16.21 24.47C16.19 24.59 16.23 24.78 16.21 24.9L16.04 26.81C16.02 26.98 16.02 27.15 16.04 27.33C16.04 36.46 23.55 43.94 32.72 43.94C41.89 43.94 49.4 36.46 49.4 27.33L49.4 26.89C49.4 26.87 49.4 26.84 49.4 26.81L47.75 5.52C47.72 5.28 47.66 5.05 47.58 4.83C47.58 4.83 47.24 3.95 46.71 3.36C46.17 2.76 45.38 2.18 44.27 1.62C42.05 0.52 38.56 -0.37 32.72 -0.37ZM32.72 43.94C14.37 43.94 -0.64 52.54 -0.64 60.3L-0.64 71.63L66.08 71.63L66.08 60.3C66.08 52.93 52.51 44.82 35.41 44.03C34.52 43.97 33.62 43.94 32.72 43.94ZM32.72 5.17C38 5.17 40.64 6 41.75 6.56C42.13 6.74 42.17 6.81 42.28 6.9L43.41 21.1C40.85 21.25 37.36 21.79 32.72 21.79C28.08 21.79 24.59 21.25 22.03 21.1L23.16 6.9C23.27 6.81 23.31 6.74 23.69 6.56C24.8 6 27.44 5.17 32.72 5.17ZM30.46 7.94L30.46 11.23L27.16 11.23L27.16 15.73L30.46 15.73L30.46 19.02L34.98 19.02L34.98 15.73L38.28 15.73L38.28 11.23L34.98 11.23L34.98 7.94L30.46 7.94L30.46 7.94ZM24.38 50.17L31.51 66.1L4.92 66.1L4.92 60.3C4.92 58.23 12.01 52.19 24.38 50.17ZM41.06 50.17C53.43 52.19 60.52 58.23 60.52 60.3L60.52 66.1L33.93 66.1L41.06 50.17Z" fill="#EC5863" fill-opacity="1.000000" fill-rule="nonzero"/>
</svg>
