<svg width="87.000000" height="72.000000" viewBox="0 0 87 72" fill="none" xmlns="http://www.w3.org/2000/svg" xmlns:xlink="http://www.w3.org/1999/xlink">
	<desc>
			Created with Pixso.
	</desc>
	<defs/>
	<path id="Vector" d="M23.58 -0.04C17.2 -0.04 11.08 2.46 6.58 6.92C2.07 11.37 -0.47 17.41 -0.47 23.71C-0.47 25.87 -0.07 28.03 0.5 30.19L18.33 30.19L23.88 15.64C25.19 12.18 30.35 11.84 32.01 15.64L41.06 38.82L43.64 32.69C44.21 31.27 45.74 30.19 47.62 30.19L86 30.19C86.57 28.03 86.96 25.87 86.96 23.71C86.96 17.41 84.43 11.37 79.92 6.92C75.41 2.46 69.3 -0.04 62.92 -0.04C54.79 -0.04 47.62 3.98 43.25 10.07C38.88 3.98 31.71 -0.04 23.58 -0.04ZM3.91 36.66C2.75 36.66 1.63 37.12 0.81 37.93C-0.01 38.74 -0.47 39.84 -0.47 40.98C-0.47 42.13 -0.01 43.23 0.81 44.04C1.63 44.85 2.75 45.3 3.91 45.3L14.57 45.3L38.88 69.05C43.25 72.93 43.25 72.93 47.62 69.05L71.92 45.3L82.59 45.3C83.75 45.3 84.86 44.85 85.68 44.04C86.5 43.23 86.96 42.13 86.96 40.98C86.96 39.84 86.5 38.74 85.68 37.93C84.86 37.12 83.75 36.66 82.59 36.66L49.37 36.66L45.3 46.6C43.55 50.96 38.53 50.35 36.91 46.73L27.95 23.71L23.75 33.77C23.1 35.41 21.61 36.66 19.64 36.66L3.91 36.66Z" fill="#EC5863" fill-opacity="1.000000" fill-rule="nonzero"/>
</svg>
