<?xml version="1.0" standalone="no"?>
<!DOCTYPE svg PUBLIC "-//W3C//DTD SVG 20010904//EN"
 "http://www.w3.org/TR/2001/REC-SVG-20010904/DTD/svg10.dtd">
<svg version="1.0" xmlns="http://www.w3.org/2000/svg"
 width="88.000000pt" height="88.000000pt" viewBox="0 0 88.000000 88.000000"
 preserveAspectRatio="xMidYMid meet">
<metadata>
Created by potrace 1.14, written by Peter Selinger 2001-2017
</metadata>
<g transform="translate(0.000000,88.000000) scale(0.100000,-0.100000)"
fill="#000000" stroke="none">
<path d="M136 774 c-63 -33 -79 -49 -107 -104 -24 -45 -34 -149 -17 -166 9 -8
167 -9 175 0 3 3 20 40 37 83 29 72 33 78 60 78 22 0 33 -7 45 -30 15 -27 38
-85 45 -110 2 -5 9 -23 15 -40 7 -16 17 -39 21 -50 7 -18 10 -16 24 17 9 20
24 39 33 42 10 3 103 5 206 4 104 0 191 3 195 7 4 4 7 34 6 68 -1 154 -148
259 -301 216 -50 -14 -55 -16 -105 -61 l-30 -28 -19 24 c-11 13 -42 36 -71 50
-71 36 -145 35 -212 0z"/>
<path d="M266 514 c-28 -76 -42 -84 -151 -84 -105 0 -127 -11 -107 -55 12 -25
17 -27 105 -28 35 0 49 -10 175 -134 75 -73 143 -133 153 -133 9 0 77 60 152
133 l135 133 48 1 c84 0 92 2 99 23 3 10 1 29 -5 40 -11 20 -18 20 -192 18
l-181 -3 -20 -53 c-39 -102 -85 -90 -132 34 -16 44 -30 81 -31 84 0 3 -7 20
-15 39 l-15 35 -18 -50z"/>
</g>
</svg>
