<svg width="547.000000" height="395.000000" viewBox="0 0 547 395" fill="none" xmlns="http://www.w3.org/2000/svg" xmlns:xlink="http://www.w3.org/1999/xlink">
	<desc>
			Created with Pixso.
	</desc>
	<defs>
		<linearGradient id="paint_linear_4_39_0" x1="367.094482" y1="48.072308" x2="367.094482" y2="38.810120" gradientUnits="userSpaceOnUse">
			<stop stop-color="#808080" stop-opacity="0.250980"/>
			<stop offset="0.540000" stop-color="#808080" stop-opacity="0.121569"/>
			<stop offset="1.000000" stop-color="#808080" stop-opacity="0.101961"/>
		</linearGradient>
		<linearGradient id="paint_linear_4_40_0" x1="231048.812500" y1="331838.437500" x2="231048.812500" y2="23136.468750" gradientUnits="userSpaceOnUse">
			<stop stop-color="#808080" stop-opacity="0.250980"/>
			<stop offset="0.540000" stop-color="#808080" stop-opacity="0.121569"/>
			<stop offset="1.000000" stop-color="#808080" stop-opacity="0.101961"/>
		</linearGradient>
	</defs>
	<g opacity="0.600000">
		<path id="Vector" d="M317.25 69.54C282.18 68.33 248.75 57 216.88 44.61C185.01 32.21 153.43 18.48 119.18 11.92C97.16 7.69 71.98 7.09 54.24 18.9C37.17 30.27 31.65 49.89 28.69 68.09C26.46 81.79 25.16 96.2 31.26 109.02C35.51 117.92 43.04 125.41 48.25 133.93C66.38 163.6 53.57 200.18 33.92 229.17C24.7 242.78 14.01 255.73 6.9 270.19C-0.21 284.66 -3.51 301.24 2.72 315.99C8.89 330.6 23.58 341.6 39.51 349.33C71.85 365 109.96 369.49 147.12 372.06C229.38 377.69 312.09 375.25 394.57 372.81C425.09 371.9 455.75 370.99 485.78 366.26C502.45 363.63 519.67 359.47 531.78 349.42C547.15 336.66 550.96 315.06 540.66 299.06C523.39 272.23 475.63 265.57 463.55 236.77C456.91 220.92 463.73 203.27 473.39 188.57C494.1 157.04 528.83 129.37 530.66 93.33C531.92 68.57 515.23 43.78 489.41 32.06C462.36 19.77 424.84 21.32 404.88 41.64C384.32 62.57 348.2 70.62 317.25 69.54Z" fill="#587EEC" fill-opacity="1.000000" fill-rule="nonzero"/>
	</g>
	<path id="Vector" d="M121.43 365.36C121.43 365.36 93.73 344.4 88.5 317.75C86.38 306.56 80.69 296.35 72.28 288.67C68.26 285.05 63.91 281.81 59.3 " stroke="#9AB1F3" stroke-opacity="1.000000" stroke-width="2.000000"/>
	<path id="Vector" d="M55.91 262.2C58.34 265.49 59.43 279.41 59.43 279.41C59.43 279.41 46.46 274.3 44.02 271.01C42.86 269.44 42.36 267.46 42.65 265.52C42.94 263.58 43.99 261.83 45.56 260.66C47.14 259.49 49.11 259 51.05 259.29C53 259.58 54.74 260.62 55.91 262.2Z" fill="#587EEC" fill-opacity="1.000000" fill-rule="nonzero"/>
	<path id="Vector" d="M79.19 273.13C79.44 277.2 72.81 289.49 72.81 289.49C72.81 289.49 64.68 278.13 64.43 274.05C64.33 272.11 65 270.21 66.3 268.76C67.59 267.3 69.41 266.42 71.35 266.3C73.29 266.18 75.2 266.82 76.67 268.1C78.13 269.38 79.04 271.19 79.18 273.13L79.19 273.13Z" fill="#587EEC" fill-opacity="1.000000" fill-rule="nonzero"/>
	<path id="Vector" d="M101.75 304.53C99.92 308.18 87.99 315.44 87.99 315.44C87.99 315.44 86.71 301.53 88.54 297.88C89.45 296.16 90.99 294.87 92.83 294.28C94.68 293.69 96.68 293.85 98.41 294.72C100.14 295.59 101.46 297.11 102.09 298.94C102.71 300.78 102.59 302.78 101.75 304.53Z" fill="#587EEC" fill-opacity="1.000000" fill-rule="nonzero"/>
	<path id="Vector" d="M113.48 332.13C112.29 336.03 101.75 345.2 101.75 345.2C101.75 345.2 98.14 331.71 99.34 327.8C99.91 325.92 101.21 324.35 102.94 323.43C104.67 322.51 106.7 322.31 108.57 322.89C110.45 323.46 112.02 324.76 112.94 326.49C113.86 328.22 114.05 330.25 113.48 332.13Z" fill="#587EEC" fill-opacity="1.000000" fill-rule="nonzero"/>
	<path id="Vector" d="M60.8 299.37C64.83 299.91 77.57 294.16 77.57 294.16C77.57 294.16 66.82 285.25 62.77 284.7C60.83 284.44 58.86 284.96 57.3 286.15C55.74 287.34 54.72 289.1 54.46 291.05C54.2 292.99 54.72 294.96 55.91 296.52C57.1 298.08 58.86 299.1 60.8 299.37Z" fill="#587EEC" fill-opacity="1.000000" fill-rule="nonzero"/>
	<path id="Vector" d="M74.93 331.47C78.96 330.78 89.37 321.48 89.37 321.48C89.37 321.48 76.44 316.2 72.42 316.89C71.45 317.05 70.53 317.4 69.7 317.92C68.88 318.43 68.16 319.11 67.59 319.9C67.02 320.7 66.62 321.6 66.41 322.55C66.19 323.5 66.16 324.49 66.33 325.45C66.5 326.42 66.85 327.34 67.37 328.16C67.9 328.98 68.58 329.7 69.38 330.26C70.18 330.82 71.08 331.21 72.04 331.42C72.99 331.63 73.98 331.65 74.94 331.47L74.93 331.47Z" fill="#587EEC" fill-opacity="1.000000" fill-rule="nonzero"/>
	<path id="Vector" d="M92.93 360.8C97.02 360.8 108.85 353.39 108.85 353.39C108.85 353.39 97.01 346 92.93 346C90.97 346 89.08 346.78 87.7 348.17C86.31 349.55 85.53 351.44 85.53 353.4C85.53 355.36 86.31 357.24 87.7 358.63C89.08 360.02 90.97 360.8 92.93 360.8L92.93 360.8Z" fill="#587EEC" fill-opacity="1.000000" fill-rule="nonzero"/>
	<path id="Vector" d="M390.52 184.13C390.52 184.13 407.59 153.87 433.33 145.15C444.13 141.56 453.48 134.56 459.98 125.2C463.02 120.72 465.65 115.98 467.83 " stroke="#9AB1F3" stroke-opacity="1.000000" stroke-width="2.000000"/>
	<path id="Vector" d="M483.99 105.48C481.06 108.32 467.41 111.27 467.41 111.27C467.41 111.27 470.76 97.71 473.69 94.86C475.11 93.54 476.99 92.82 478.92 92.87C480.86 92.91 482.7 93.72 484.05 95.11C485.4 96.5 486.15 98.37 486.14 100.31C486.13 102.25 485.35 104.11 483.99 105.48Z" fill="#587EEC" fill-opacity="1.000000" fill-rule="nonzero"/>
	<path id="Vector" d="M476.27 129.99C472.24 130.78 459.21 125.83 459.21 125.83C459.21 125.83 469.39 116.26 473.39 115.48C474.35 115.26 475.35 115.25 476.31 115.42C477.28 115.6 478.21 115.97 479.03 116.5C479.86 117.04 480.57 117.74 481.12 118.56C481.67 119.37 482.05 120.29 482.24 121.26C482.44 122.22 482.43 123.22 482.23 124.19C482.04 125.15 481.65 126.07 481.09 126.88C480.54 127.69 479.82 128.39 478.99 128.92C478.17 129.45 477.24 129.82 476.27 129.99Z" fill="#587EEC" fill-opacity="1.000000" fill-rule="nonzero"/>
	<path id="Vector" d="M448.19 156.53C444.33 155.2 435.56 144.33 435.56 144.33C435.56 144.33 449.16 141.22 453.03 142.55C453.96 142.86 454.82 143.35 455.56 144C456.29 144.64 456.9 145.42 457.33 146.3C457.76 147.18 458.02 148.14 458.08 149.11C458.14 150.09 458.01 151.07 457.69 152C457.37 152.92 456.87 153.78 456.21 154.51C455.56 155.24 454.77 155.83 453.89 156.25C453 156.67 452.04 156.92 451.07 156.96C450.09 157.01 449.11 156.87 448.19 156.53Z" fill="#587EEC" fill-opacity="1.000000" fill-rule="nonzero"/>
	<path id="Vector" d="M422.38 171.83C418.35 171.17 407.9 161.92 407.9 161.92C407.9 161.92 420.79 156.55 424.81 157.21C426.75 157.53 428.48 158.61 429.62 160.2C430.77 161.8 431.23 163.78 430.91 165.72C430.59 167.66 429.52 169.39 427.92 170.54C426.33 171.68 424.35 172.15 422.41 171.83L422.38 171.83Z" fill="#587EEC" fill-opacity="1.000000" fill-rule="nonzero"/>
	<path id="Vector" d="M447.84 115.24C447.83 119.32 455.24 131.18 455.24 131.18C455.24 131.18 462.64 119.34 462.64 115.26C462.66 114.27 462.49 113.29 462.13 112.37C461.77 111.45 461.23 110.61 460.54 109.9C459.85 109.19 459.03 108.63 458.12 108.25C457.21 107.86 456.23 107.67 455.25 107.67C454.26 107.67 453.28 107.86 452.37 108.25C451.46 108.63 450.64 109.19 449.95 109.9C449.26 110.61 448.72 111.45 448.36 112.37C448 113.29 447.83 114.27 447.86 115.26L447.84 115.24Z" fill="#587EEC" fill-opacity="1.000000" fill-rule="nonzero"/>
	<path id="Vector" d="M417.91 133.51C419.12 137.41 429.72 146.5 429.72 146.5C429.72 146.5 433.25 132.99 432.02 129.09C431.38 127.28 430.07 125.79 428.35 124.94C426.64 124.08 424.66 123.92 422.84 124.49C421.01 125.06 419.47 126.32 418.56 128.01C417.64 129.69 417.41 131.66 417.92 133.51L417.91 133.51Z" fill="#587EEC" fill-opacity="1.000000" fill-rule="nonzero"/>
	<path id="Vector" d="M391.28 155.26C391.82 159.29 400.73 170.06 400.73 170.06C400.73 170.06 406.47 157.34 405.93 153.29C405.82 152.31 405.52 151.36 405.04 150.5C404.56 149.64 403.91 148.88 403.14 148.28C402.36 147.67 401.47 147.22 400.52 146.96C399.57 146.7 398.57 146.64 397.6 146.77C396.62 146.9 395.68 147.23 394.83 147.73C393.98 148.23 393.24 148.89 392.65 149.69C392.06 150.48 391.64 151.38 391.4 152.34C391.17 153.29 391.12 154.29 391.28 155.26Z" fill="#587EEC" fill-opacity="1.000000" fill-rule="nonzero"/>
	<g opacity="0.250000">
		<path id="Vector" d="M483.99 105.48C481.06 108.32 467.41 111.27 467.41 111.27C467.41 111.27 470.76 97.71 473.69 94.86C475.11 93.54 476.99 92.82 478.92 92.87C480.86 92.91 482.7 93.72 484.05 95.11C485.4 96.5 486.15 98.37 486.14 100.31C486.13 102.25 485.35 104.11 483.99 105.48Z" fill="#000000" fill-opacity="1.000000" fill-rule="nonzero"/>
	</g>
	<g opacity="0.250000">
		<path id="Vector" d="M476.27 129.99C472.24 130.78 459.21 125.83 459.21 125.83C459.21 125.83 469.39 116.26 473.39 115.48C474.35 115.26 475.35 115.25 476.31 115.42C477.28 115.6 478.21 115.97 479.03 116.5C479.86 117.04 480.57 117.74 481.12 118.56C481.67 119.37 482.05 120.29 482.24 121.26C482.44 122.22 482.43 123.22 482.23 124.19C482.04 125.15 481.65 126.07 481.09 126.88C480.54 127.69 479.82 128.39 478.99 128.92C478.17 129.45 477.24 129.82 476.27 129.99Z" fill="#000000" fill-opacity="1.000000" fill-rule="nonzero"/>
	</g>
	<g opacity="0.250000">
		<path id="Vector" d="M448.19 156.53C444.33 155.2 435.56 144.33 435.56 144.33C435.56 144.33 449.16 141.22 453.03 142.55C453.96 142.86 454.82 143.35 455.56 144C456.29 144.64 456.9 145.42 457.33 146.3C457.76 147.18 458.02 148.14 458.08 149.11C458.14 150.09 458.01 151.07 457.69 152C457.37 152.92 456.87 153.78 456.21 154.51C455.56 155.24 454.77 155.83 453.89 156.25C453 156.67 452.04 156.92 451.07 156.96C450.09 157.01 449.11 156.87 448.19 156.53Z" fill="#000000" fill-opacity="1.000000" fill-rule="nonzero"/>
	</g>
	<g opacity="0.250000">
		<path id="Vector" d="M422.38 171.83C418.35 171.17 407.9 161.92 407.9 161.92C407.9 161.92 420.79 156.55 424.81 157.21C426.75 157.53 428.48 158.61 429.62 160.2C430.77 161.8 431.23 163.78 430.91 165.72C430.59 167.66 429.52 169.39 427.92 170.54C426.33 171.68 424.35 172.15 422.41 171.83L422.38 171.83Z" fill="#000000" fill-opacity="1.000000" fill-rule="nonzero"/>
	</g>
	<g opacity="0.250000">
		<path id="Vector" d="M447.84 115.24C447.83 119.32 455.24 131.18 455.24 131.18C455.24 131.18 462.64 119.34 462.64 115.26C462.66 114.27 462.49 113.29 462.13 112.37C461.77 111.45 461.23 110.61 460.54 109.9C459.85 109.19 459.03 108.63 458.12 108.25C457.21 107.86 456.23 107.67 455.25 107.67C454.26 107.67 453.28 107.86 452.37 108.25C451.46 108.63 450.64 109.19 449.95 109.9C449.26 110.61 448.72 111.45 448.36 112.37C448 113.29 447.83 114.27 447.86 115.26L447.84 115.24Z" fill="#000000" fill-opacity="1.000000" fill-rule="nonzero"/>
	</g>
	<g opacity="0.250000">
		<path id="Vector" d="M417.91 133.51C419.12 137.41 429.72 146.5 429.72 146.5C429.72 146.5 433.25 132.99 432.02 129.09C431.38 127.28 430.07 125.79 428.35 124.94C426.64 124.08 424.66 123.92 422.84 124.49C421.01 125.06 419.47 126.32 418.56 128.01C417.64 129.69 417.41 131.66 417.92 133.51L417.91 133.51Z" fill="#000000" fill-opacity="1.000000" fill-rule="nonzero"/>
	</g>
	<g opacity="0.250000">
		<path id="Vector" d="M391.28 155.26C391.82 159.29 400.73 170.06 400.73 170.06C400.73 170.06 406.47 157.34 405.93 153.29C405.82 152.31 405.52 151.36 405.04 150.5C404.56 149.64 403.91 148.88 403.14 148.28C402.36 147.67 401.47 147.22 400.52 146.96C399.57 146.7 398.57 146.64 397.6 146.77C396.62 146.9 395.68 147.23 394.83 147.73C393.98 148.23 393.24 148.89 392.65 149.69C392.06 150.48 391.64 151.38 391.4 152.34C391.17 153.29 391.12 154.29 391.28 155.26Z" fill="#000000" fill-opacity="1.000000" fill-rule="nonzero"/>
	</g>
	<path id="Vector" d="M391.5 183.53C391.5 183.53 394.85 148.94 414.83 130.55C423.25 122.88 428.97 112.69 431.12 101.5C432.09 96.18 432.58 90.78 432.57 " stroke="#9AB1F3" stroke-opacity="1.000000" stroke-width="2.000000"/>
	<path id="Vector" d="M445.09 73.7C443.58 77.49 432.28 85.72 432.28 85.72C432.28 85.72 429.85 71.96 431.38 68.17C432.11 66.35 433.54 64.9 435.34 64.13C437.15 63.37 439.19 63.35 441 64.08C442.82 64.82 444.28 66.25 445.04 68.05C445.81 69.86 445.83 71.9 445.09 73.72L445.09 73.7Z" fill="#587EEC" fill-opacity="1.000000" fill-rule="nonzero"/>
	<path id="Vector" d="M447.97 99.26C444.63 101.61 430.69 102.38 430.69 102.38C430.69 102.38 436.12 89.51 439.46 87.16C440.25 86.57 441.16 86.14 442.12 85.9C443.08 85.67 444.07 85.62 445.05 85.78C446.03 85.93 446.96 86.28 447.8 86.81C448.64 87.33 449.37 88.02 449.94 88.83C450.51 89.64 450.91 90.55 451.12 91.52C451.33 92.49 451.34 93.49 451.16 94.46C450.97 95.43 450.6 96.36 450.05 97.18C449.5 98 448.79 98.71 447.97 99.26L447.97 99.26Z" fill="#587EEC" fill-opacity="1.000000" fill-rule="nonzero"/>
	<path id="Vector" d="M433.03 134.93C428.96 135.27 416.54 128.88 416.54 128.88C416.54 128.88 427.72 120.52 431.79 120.17C433.75 120.01 435.68 120.63 437.18 121.9C438.68 123.16 439.61 124.97 439.78 126.93C439.94 128.88 439.32 130.82 438.06 132.32C436.79 133.82 434.98 134.75 433.03 134.92L433.03 134.93Z" fill="#587EEC" fill-opacity="1.000000" fill-rule="nonzero"/>
	<path id="Vector" d="M415.65 159.37C411.7 160.37 398.38 156.21 398.38 156.21C398.38 156.21 407.98 146.07 411.94 145.04C413.84 144.55 415.85 144.83 417.54 145.83C419.23 146.82 420.46 148.45 420.95 150.35C421.44 152.25 421.16 154.26 420.17 155.95C419.17 157.64 417.55 158.87 415.65 159.37Z" fill="#587EEC" fill-opacity="1.000000" fill-rule="nonzero"/>
	<path id="Vector" d="M416 97.31C417.65 101.04 429.21 108.9 429.21 108.9C429.21 108.9 431.17 95.07 429.52 91.33C428.7 89.59 427.22 88.23 425.41 87.56C423.61 86.88 421.6 86.94 419.84 87.72C418.07 88.51 416.69 89.95 415.97 91.74C415.25 93.53 415.26 95.54 416 97.32L416 97.31Z" fill="#587EEC" fill-opacity="1.000000" fill-rule="nonzero"/>
	<path id="Vector" d="M396.04 126.14C398.73 129.21 412.1 133.23 412.1 133.23C412.1 133.23 409.84 119.45 407.15 116.38C406.51 115.63 405.73 115.02 404.86 114.58C403.99 114.14 403.03 113.87 402.06 113.8C401.08 113.73 400.1 113.86 399.17 114.17C398.24 114.48 397.38 114.98 396.65 115.62C395.91 116.27 395.31 117.06 394.88 117.94C394.45 118.82 394.2 119.78 394.14 120.76C394.09 121.73 394.23 122.71 394.55 123.64C394.88 124.56 395.38 125.41 396.04 126.14Z" fill="#587EEC" fill-opacity="1.000000" fill-rule="nonzero"/>
	<path id="Vector" d="M380.48 156.84C382.62 160.32 395.11 166.54 395.11 166.54C395.11 166.54 395.22 152.58 393.1 149.1C392.04 147.49 390.4 146.35 388.53 145.94C386.65 145.52 384.68 145.85 383.05 146.85C381.41 147.86 380.23 149.47 379.75 151.33C379.28 153.2 379.55 155.17 380.51 156.84L380.48 156.84Z" fill="#587EEC" fill-opacity="1.000000" fill-rule="nonzero"/>
	<path id="Vector" d="M365.82 48.07C366.65 45 367.66 41.91 368.36 38.81C367.52 41.91 366.51 45.01 365.82 48.07Z" fill="url(#paint_linear_4_39_0)" fill-opacity="1.000000" fill-rule="nonzero"/>
	<path id="Vector" d="M362.07 77.63C362 77.51 361.95 77.39 361.89 77.27C361.89 77.22 361.84 77.18 361.82 77.13C361.71 77.19 361.6 77.23 361.48 77.27C361.26 77.36 361.04 77.44 360.8 77.5C360.57 77.57 360.48 77.6 360.3 77.64C360.15 77.69 360.01 77.73 359.85 77.76L359.89 77.85C360.08 77.81 360.26 77.77 360.45 77.72L360.5 78.35C360.71 78.35 360.91 78.32 361.1 78.32C361.19 78.31 361.28 78.31 361.37 78.32C361.76 78.32 362.1 78.32 362.38 78.32C362.27 78.09 362.16 77.85 362.07 77.63ZM464.3 240.46C461.94 237.27 457.21 203.04 457.21 203.04C457.21 203.04 447.92 178.69 450.46 168.98C452.99 159.26 443.54 134.4 443.54 134.4C443.54 134.4 437.29 131.68 436.95 127.65C436.95 127.65 411.45 119.59 410.26 113.54C409.29 108.58 393.48 105.03 387.8 103.9C386.07 96.91 384.32 90.38 383.04 86.82C382.69 85.71 382.37 84.75 382.06 84C379.89 78.45 373.18 77.95 368.32 78.39C368.11 77.45 367.72 76.55 367.17 75.76C367.09 75.48 366.93 75.24 366.71 75.06C366.6 74.97 366.49 74.89 366.37 74.82C366.29 74.65 366.17 74.51 366.03 74.38C365.89 74.26 365.74 74.15 365.58 74.06C365.46 74 365.34 73.94 365.22 73.89C364.92 73.78 364.62 73.7 364.32 73.65C363.96 73.57 363.59 73.53 363.23 73.51C364.12 73.12 364.91 72.54 365.55 71.81C365.98 71.3 366.31 70.7 366.5 70.05C366.66 69.52 366.73 68.96 366.71 68.4C366.58 68.63 366.43 68.85 366.26 69.05C366.47 66.82 365.29 64.55 364.62 62.33C363.8 59.44 363.65 56.39 364.17 53.43C364.85 48.97 366.52 44.45 367.65 39.91C367.66 39.88 367.66 39.86 367.65 39.83C368.25 37.58 368.62 35.26 368.75 32.93C368.95 28.23 367.74 23.54 365.81 19.26C364.09 15.46 361.56 11.73 357.68 10.19C354.8 9.02 351.57 9.21 348.47 9.02C341.51 8.58 334.87 6.14 328.26 3.91C321.64 1.68 314.83 -0.35 307.86 0.04C300.9 0.43 293.73 3.79 290.55 9.96C289.55 11.89 288.97 14.03 287.76 15.84C285.51 19.25 281.47 20.96 278.1 23.31C274.73 25.66 271.76 29 270.54 32.99C269.88 35.14 269.79 37.42 270.27 39.62C270.38 40.11 270.52 40.6 270.7 41.08C271.17 42.41 271.92 43.63 272.89 44.66C273.62 45.42 274.45 46.07 275.37 46.59C276.53 47.23 277.77 47.71 279.05 48.02C279.01 48.17 278.96 48.33 278.91 48.49C278.83 48.75 278.76 48.99 278.68 49.27C278.52 49.89 278.36 50.52 278.23 51.16C278.23 51.2 278.23 51.25 278.23 51.29C277.61 54.16 277.3 57.08 277.3 60.02C277.3 61.4 277.37 62.79 277.51 64.17C279.53 84.62 296.4 100.75 317.25 101.8C317.96 101.83 318.68 101.85 319.41 101.85C319.74 101.85 320.07 101.85 320.42 101.85C320.75 102.29 321.07 102.73 321.38 103.16C321.68 103.6 321.97 104.04 322.23 104.47L321.5 103.72L320.77 103.05C320.57 103.32 320.35 103.57 320.11 103.81C319.64 103.64 319.15 103.5 318.66 103.39C316.57 102.93 313.38 102.76 309.19 104.02C305.34 105.18 300.63 107.55 295.12 112.06L268.27 128.19L253.75 137.03L248.52 149.83C248.52 149.83 244.58 165.03 240.21 182.46C240.04 182.51 239.87 182.56 239.7 182.62C239.35 182.58 238.99 182.56 238.64 182.56C236.1 182.56 233.65 183.53 231.82 185.29C229.99 187.05 228.91 189.45 228.8 191.99C220.1 202.57 219.61 213.15 221.65 218.01C221.84 218.47 222.07 218.9 222.35 219.31C223.69 221.24 226.19 226.23 228.73 231.55C228.66 231.99 228.62 232.35 228.6 232.63C228.6 232.72 228.6 232.81 228.6 232.9C228.6 232.9 230.11 255.74 225.08 262.28C223.97 263.71 224.14 265.58 225.08 267.66C228.45 275.13 241.79 285.1 241.79 285.1C241.79 285.1 257.79 285.01 266.71 284.04C266.68 284.94 266.66 285.83 266.64 286.7C266.44 295.51 266.44 302.89 266.44 302.89L266.11 312.13C266.11 312.13 263.09 331.6 261.57 336.96C260.62 340.33 261.72 371.5 262.68 394.41L420.32 394.41C422.18 380.86 419.56 339.67 419.56 339.67C419.56 339.67 417.08 329.02 416.99 319.74C416.98 319.73 416.98 319.72 416.98 319.71C416.98 319.7 416.98 319.68 416.99 319.67C416.99 318.86 416.99 318.07 417.02 317.3L418.16 317.26L420.22 317.19L420.4 317.19C420.4 317.19 420.45 316.99 420.57 316.68C420.84 315.9 421.21 315.16 421.67 314.48C422.55 313.18 423.92 311.91 425.98 311.83C427.12 311.78 428.88 310.86 430.87 309.5C430.88 309.5 430.9 309.5 430.91 309.5C436.26 305.88 443.34 299.19 445.06 298.09C447.42 296.58 458.73 286.5 458.73 286.5C458.73 286.5 460.42 284.36 462.21 281.79L462.28 281.7C464.52 278.47 466.89 274.62 466.31 273.4C465.3 271.23 466.98 266.02 466.98 266.02C472.24 256.4 466.67 243.65 464.3 240.46ZM366.92 85.46C366.97 85.61 367 85.77 367.01 85.93C366.88 85.76 366.76 85.58 366.63 85.42L366.51 85.26L366.43 85.14L366.62 84.88C366.62 84.88 366.62 84.88 366.62 84.91C366.75 85.08 366.85 85.26 366.92 85.46ZM365.23 81C364.68 81.11 364.24 81.21 363.96 81.29C363.6 80.65 363.26 80.02 362.96 79.37C363.76 79.84 364.52 80.39 365.23 81ZM364.28 81.8C364.28 81.79 364.28 81.77 364.28 81.76L364.32 81.8C364.53 81.93 364.73 82.06 364.91 82.2C365.08 82.32 365.23 82.44 365.38 82.56C365.28 82.73 365.17 82.91 365.06 83.06C364.88 82.78 364.72 82.52 364.56 82.24C364.46 82.13 364.37 81.98 364.28 81.8ZM361.26 75.58C362.23 75.48 363.21 75.48 364.18 75.58C364.32 75.58 364.44 75.6 364.56 75.62C364.83 75.66 365.1 75.73 365.36 75.83C365.96 76.66 366.32 77.64 366.43 78.66L366.15 78.7L365.89 78.75C365.38 78.83 364.88 78.92 364.49 79L363.98 79.1C363.31 79.25 362.93 79.36 362.91 79.37C362.84 79.23 362.78 79.1 362.71 78.97C362.6 78.76 362.48 78.53 362.38 78.32C362.28 78.1 362.15 77.85 362.04 77.63C361.97 77.51 361.92 77.39 361.87 77.27C361.87 77.22 361.82 77.18 361.8 77.13C361.77 77.08 361.74 77.02 361.72 76.97C361.41 76.34 361.13 75.72 360.86 75.1C360.83 75.04 360.8 74.98 360.78 74.92L361.16 74.89L361.16 75.02L361.26 75.58ZM241.1 388.18C241.06 380.68 240.51 372.56 239 364.94C238.36 361.7 237.69 358.46 237.02 355.28C236.85 354.48 236.68 353.69 236.52 352.91L234.96 353.12L234.82 353.12C230.59 333.15 226.17 315.57 226.17 315.57C226.17 315.57 217.39 282.01 218.4 279.34C218.54 278.99 218.37 278.05 218 276.67C215.87 269.04 207 248.02 203.9 240.84C203.9 240.8 203.87 240.77 203.86 240.74C203.36 239.54 202.99 238.73 202.88 238.49L203.61 227.77L203.65 227.12L203.75 225.75L203.71 225.72L203.75 225.08C203.75 225.08 196.08 218.79 183.1 214.25C182.6 214.07 182.06 213.9 181.53 213.72C182.18 209.39 183.05 204.49 184.17 199.71C184.27 199.24 184.39 198.77 184.51 198.3C184.62 197.84 184.74 197.38 184.86 196.92C185.05 196.18 185.26 195.44 185.47 194.72C186.17 194.49 186.86 194.25 187.54 193.99L187.8 193.88C196.18 190.62 203.09 184.44 207.25 176.47C211.42 168.5 212.56 159.29 210.46 150.55C209.27 145.59 207.06 140.93 203.98 136.86C203.74 136.55 203.5 136.24 203.25 135.93C203 135.63 202.71 135.28 202.43 134.97C203.89 131.66 205.6 128.51 205.74 125.29C205.77 124.88 205.77 124.47 205.74 124.07L205.74 124.01C205.56 121.94 204.64 119.85 202.51 117.65C199.39 114.41 194.95 112.78 190.51 111.99C186.08 111.2 181.55 111.18 177.09 110.66C169.69 109.77 162.49 107.49 155.09 106.79C145.98 105.94 136.8 107.5 128.48 111.32C122.98 113.84 117.4 118.24 117.07 124.29C116.8 129.28 120.27 134.07 119.4 139C118.53 143.85 113.59 147.66 114.02 152.57C114.19 154.48 115.17 156.2 116.4 157.72C116.82 158.23 117.27 158.73 117.74 159.23C119.53 161.13 121.5 162.96 122.5 165.35C122.54 165.45 122.58 165.55 122.62 165.65C123.47 168.02 123.09 171.01 120.98 172.36C121 172.37 121 172.38 121.01 172.4C121.04 172.44 121.07 172.47 121.09 172.51C121.1 172.5 121.1 172.49 121.09 172.48C121.84 173.37 122.85 174 123.97 174.28L124.4 174.41C124.05 174.79 123.72 175.18 123.39 175.59L123.17 175.88C122.62 176.63 122.11 177.41 121.66 178.22C121.41 178.68 121.16 179.13 120.95 179.58C120.26 180.97 119.76 182.43 119.47 183.95C118.93 187.29 119.69 190.76 118.87 194.03C117.87 198.06 114.68 201.16 112.88 204.9C109.48 211.96 111.4 220.23 112.09 228.03C113.02 238.61 111.51 249.24 110 259.75C109.21 265.34 108.41 270.93 107.61 276.53C105.59 290.59 103.58 304.65 101.56 318.7C100.83 323.85 99.96 329.28 96.53 333.26L96.56 333.26C96.56 333.26 96.56 333.29 96.53 333.3C97.56 333.75 98.65 334.03 99.77 334.14C104.25 334.59 108.99 332.42 113.02 330.05C116.21 328.21 119.23 326.08 122.05 323.71C121.64 325.22 121.19 326.87 120.72 328.64C120.72 328.66 120.72 328.67 120.72 328.69C115.04 350.36 105.89 390.08 105.89 390.08C105.89 390.08 105.06 391.81 103.98 394.39L246 394.39C244.34 392.37 242.8 390.44 241.59 388.88L241.1 388.18ZM135.94 187.82C135.98 187.76 136 187.71 136.04 187.65C136.04 187.81 136.04 187.97 136.04 188.12C136.04 188.27 136.04 188.41 136.04 188.55C136.04 188.69 136.04 188.67 136.04 188.74C136.04 188.95 135.99 189.16 135.96 189.36C135.96 189.36 135.96 189.39 135.96 189.41L136.46 189.6L137.04 189.84C140.5 191.2 143.99 192.44 147.53 193.54C147.89 193.66 148.26 193.77 148.63 193.87L148.7 194.5C148.79 195.14 148.88 195.79 148.96 196.44C148.96 196.44 148.96 196.47 148.96 196.49C149.19 198.29 149.41 200.08 149.6 201.84C149.6 201.84 140.36 198.31 140.47 203.67C140.47 203.76 140.47 203.86 140.47 203.95C140.46 204.08 140.46 204.21 140.47 204.34C140.56 208.51 141.86 210.98 142.13 212.25C142.11 212.31 142.08 212.35 142.04 212.39C141.82 212.88 141.74 213.42 141.82 213.95C141.81 214.85 141.89 215.75 142.03 216.64C141.76 216.81 141.5 216.97 141.23 217.15C141.03 217.27 140.84 217.41 140.64 217.55C139.4 213.27 137.79 209.1 135.81 205.1C134.42 202.24 132.87 199.27 132.88 196.14C132.88 195.94 132.88 195.73 132.91 195.53C132.97 194.62 133.14 193.72 133.42 192.86C133.54 192.53 133.66 192.21 133.81 191.89C134.13 191.14 134.5 190.4 134.91 189.69C135.17 189.21 135.45 188.74 135.71 188.27C135.8 188.13 135.88 187.98 135.96 187.84L135.94 187.82ZM362.07 77.63C362 77.51 361.95 77.39 361.89 77.27C361.89 77.22 361.84 77.18 361.82 77.13C361.71 77.19 361.6 77.23 361.48 77.27C361.26 77.36 361.04 77.44 360.8 77.5C360.57 77.57 360.48 77.6 360.3 77.64L359.85 77.76L359.89 77.85C360.08 77.81 360.26 77.77 360.45 77.72L360.5 78.35C360.71 78.35 360.91 78.32 361.1 78.32L361.37 78.32C361.76 78.32 362.1 78.32 362.38 78.32C362.27 78.09 362.16 77.85 362.07 77.63Z" fill="url(#paint_linear_4_40_0)" fill-opacity="1.000000" fill-rule="nonzero"/>
	<path id="Vector" d="M252.03 151.64L249.01 152.98C249.01 152.98 229.31 229.55 229.31 235.74C229.31 241.92 271.07 276.36 271.07 276.36L277.59 232.34C277.59 232.34 268.23 131.41 252.03 151.64Z" fill="#E8F5FF" fill-opacity="1.000000" fill-rule="nonzero"/>
	<path id="Vector" d="M343.64 127.29L326.19 118.18C325.21 114.01 323.48 110.06 321.07 106.51C318.52 102.82 315.13 99.2 310.9 97.31C300.2 92.51 356.12 67.33 356.12 67.33C357 70.36 358.04 73.33 359.23 76.25C362.11 83.37 366.89 92.57 373.05 95.19C383.52 99.65 343.64 127.29 343.64 127.29Z" fill="#FFB0B1" fill-opacity="1.000000" fill-rule="nonzero"/>
	<g opacity="0.100000">
		<path id="Vector" d="M359.23 76.25C356.84 84.66 351.87 92.1 345.02 97.53C338.18 102.96 329.8 106.11 321.07 106.51C318.52 102.82 315.13 99.2 310.9 97.31C300.2 92.51 356.12 67.33 356.12 67.33C357 70.36 358.04 73.33 359.23 76.25Z" fill="#000000" fill-opacity="1.000000" fill-rule="nonzero"/>
	</g>
	<path id="Vector" d="M360.8 63.54C360.8 71.78 358.36 79.85 353.78 86.7C349.21 93.56 342.7 98.91 335.09 102.06C327.47 105.22 319.09 106.05 311.01 104.44C302.93 102.83 295.5 98.86 289.68 93.03C283.85 87.2 279.88 79.77 278.27 71.68C276.66 63.59 277.49 55.21 280.64 47.59C283.79 39.97 289.14 33.46 295.99 28.88C302.84 24.3 310.9 21.86 319.14 21.86C324.62 21.83 330.05 22.89 335.11 24.98C340.18 27.06 344.78 30.13 348.65 34.01C352.53 37.88 355.59 42.49 357.68 47.56C359.76 52.63 360.82 58.06 360.8 63.54Z" fill="#FFB0B1" fill-opacity="1.000000" fill-rule="nonzero"/>
	<path id="Vector" d="M366.81 121.94L355.45 148.47L345.43 166.07L313.35 166.07L303.99 142L307.78 117.04L332.28 117.04L348.1 116.14L353.45 114.36L356.89 116.31L366.81 121.94Z" fill="#575A89" fill-opacity="1.000000" fill-rule="nonzero"/>
	<g opacity="0.100000">
		<path id="Vector" d="M362.9 86.58C362.9 86.58 369.99 88.09 363.64 93.29C357.29 98.5 335.4 115.05 335.4 115.05C335.4 115.05 343.09 121.91 341.5 129.94L366.98 115.73L371.51 92.99C371.51 92.99 372.02 86.15 362.9 86.58Z" fill="#000000" fill-opacity="1.000000" fill-rule="nonzero"/>
	</g>
	<g opacity="0.100000">
		<path id="Vector" d="M340.41 115.05L324.21 117.73C324.21 117.73 327.55 130.1 325.88 133.61C325.83 133.72 325.79 133.84 325.75 133.95L319.14 151.84L324.1 165.88L341.25 142.47L335.4 133.61C335.4 133.61 341.58 125.42 345.26 122.58C348.93 119.74 340.41 115.05 340.41 115.05Z" fill="#000000" fill-opacity="1.000000" fill-rule="nonzero"/>
	</g>
	<path id="Vector" d="M340.41 114.36L324.21 117.04C324.21 117.04 327.55 129.41 325.88 132.92C325.83 133.03 325.79 133.14 325.75 133.26L319.14 151.14L324.1 165.19L341.25 141.76L335.4 132.9C335.4 132.9 341.58 124.71 345.26 121.87C348.93 119.03 340.41 114.36 340.41 114.36Z" fill="#DCE6F2" fill-opacity="1.000000" fill-rule="nonzero"/>
	<path id="Vector" d="M363.58 85.24C363.58 85.24 370.67 86.75 364.32 91.96C357.96 97.16 335.4 115.05 335.4 115.05C335.4 115.05 343.76 120.57 342.17 128.6L367.65 114.39L372.18 91.65C372.18 91.65 372.69 84.82 363.58 85.24Z" fill="#575A89" fill-opacity="1.000000" fill-rule="nonzero"/>
	<g opacity="0.100000">
		<path id="Vector" d="M322.19 108.09C322.19 108.09 323.73 110.98 330.56 116.2C330.56 116.2 319.2 122.25 323.54 130.75L306.16 126.21L303.49 117.85L322.19 108.09Z" fill="#000000" fill-opacity="1.000000" fill-rule="nonzero"/>
	</g>
	<path id="Vector" d="M321.52 107.43C321.52 107.43 323.06 110.32 329.89 115.53C329.89 115.53 318.53 121.55 322.87 130.08L305.5 125.54L302.82 117.19L321.52 107.43Z" fill="#575A89" fill-opacity="1.000000" fill-rule="nonzero"/>
	<g opacity="0.100000">
		<path id="Vector" d="M366.81 121.94L355.45 148.47L345.45 166.07L313.35 166.07L303.99 142L307.78 117.04L314.59 117.04C314.48 122.86 316.61 129.7 316.47 132.25C316.24 136.43 322.71 159 322.71 159C322.71 159 336.24 137.1 341.58 135.15C344.94 133.92 352.06 123.73 356.89 116.31L366.81 121.94Z" fill="#000000" fill-opacity="1.000000" fill-rule="nonzero"/>
	</g>
	<path id="Vector" d="M411.57 261.53L410.42 262.98C410.42 262.98 418.77 304.94 416.46 314.47C416.07 316.19 415.84 317.94 415.79 319.7L415.79 319.78C415.38 329.48 418.31 342.06 418.31 342.06C418.31 342.06 420.65 379.15 419.32 394.4L262.88 394.4C261.96 371.85 260.98 342.62 261.87 339.38C263.38 334.04 266.41 314.64 266.41 314.64L266.74 305.45C266.74 305.45 266.74 296.56 267.01 286.67C267.13 282.22 267.3 277.55 267.54 273.4C267.86 268.19 268.3 263.8 268.91 261.65C269.29 260.01 269.5 258.35 269.56 256.67C269.56 256.51 269.56 256.35 269.59 256.19C269.59 255.69 269.64 255.14 269.66 254.58C269.66 254.43 269.66 254.27 269.66 254.08C269.75 250.83 269.72 246.98 269.61 242.99C269.61 242.78 269.61 242.55 269.61 242.33C269.53 239.34 269.4 236.28 269.26 233.38C268.82 224.31 268.25 216.64 268.25 216.64L249.04 152.95L254.22 140.19L268.59 131.38L295.15 115.33C308.11 104.67 316.64 105.95 319.9 107.12C320.21 107.23 320.52 107.35 320.82 107.5C320.92 107.55 321 107.59 321.08 107.63C321.18 107.68 321.28 107.74 321.38 107.8C320.49 108.23 319.71 108.87 319.12 109.66C318.45 110.56 317.98 111.59 317.72 112.69C317.55 113.36 317.44 114.05 317.37 114.75C317.3 115.48 317.28 116.23 317.28 117C317.31 118.66 317.46 120.33 317.7 121.98C317.7 122.01 317.7 122.05 317.7 122.09C317.87 123.27 318.08 124.42 318.28 125.51C318.28 125.52 318.28 125.54 318.28 125.56C318.51 126.83 318.74 128 318.9 129C318.93 129.19 318.95 129.35 318.98 129.51C319.09 130.17 319.14 130.85 319.13 131.52C319.19 133.15 319.41 134.77 319.79 136.36C319.92 137.03 320.07 137.74 320.24 138.48C320.46 139.49 320.71 140.58 320.98 141.7C321.12 142.32 321.28 142.95 321.44 143.58C321.5 143.83 321.57 144.09 321.63 144.34L321.73 144.74C322.8 149.01 323.96 153.26 324.68 155.83C325.1 157.34 325.37 158.27 325.37 158.27C325.37 158.27 332.95 146 339.01 139.02C339.1 138.92 339.18 138.82 339.26 138.73C339.86 138.04 340.45 137.41 341.02 136.85C342.25 135.63 343.36 134.75 344.25 134.42C344.44 134.36 344.62 134.27 344.8 134.17C347.28 132.76 351.28 127.66 355.02 122.31C355.39 121.81 355.74 121.26 356.11 120.74C356.94 119.54 357.74 118.34 358.5 117.18C359.09 116.3 359.65 115.44 360.18 114.63C362.69 110.71 364.47 107.78 364.47 107.78L367.96 107.63L368.57 107.6L368.98 107.6L384.85 106.86C384.85 106.86 385.53 106.98 386.66 107.2C386.72 107.2 386.78 107.2 386.85 107.24C392.48 108.36 408.12 111.91 409.08 116.82C410.25 122.84 435.48 130.86 435.48 130.86C435.81 134.89 441.99 137.55 441.99 137.55C441.99 137.55 451.35 162.29 448.84 171.99C446.37 181.56 455.28 205.25 455.52 205.91L453.81 208.07L411.57 261.53Z" fill="#E8F5FF" fill-opacity="1.000000" fill-rule="nonzero"/>
	<g opacity="0.100000">
		<path id="Vector" d="M362.89 84.82C362.89 84.82 378.34 80.43 381.85 89.46C385.36 98.49 393.21 134.93 393.21 134.93C393.21 134.93 372.83 138.78 367.48 134.93C364.35 132.65 360.47 131.64 356.62 132.09L345.09 139.95L341.69 138.94C341.69 138.94 360.13 111.51 364.14 102.18C368.15 92.86 369.5 88.69 362.89 84.82Z" fill="#000000" fill-opacity="1.000000" fill-rule="nonzero"/>
	</g>
	<path id="Vector" d="M362.22 82.8C362.22 82.8 377.68 78.42 381.21 87.44C384.73 96.47 392.57 132.92 392.57 132.92C392.57 132.92 372.19 136.76 366.84 132.92C363.71 130.64 359.83 129.62 355.98 130.08L344.44 137.93L341.04 136.92C341.04 136.92 359.48 109.49 363.49 100.17C367.5 90.85 368.83 86.69 362.22 82.8Z" fill="#E8F5FF" fill-opacity="1.000000" fill-rule="nonzero"/>
	<g opacity="0.100000">
		<path id="Vector" d="M258.54 228.21C258.54 228.21 270.07 231.05 272.25 237.57C274.42 244.1 263.73 244.26 263.73 244.26C263.73 244.26 257.21 232.73 258.54 228.21Z" fill="#000000" fill-opacity="1.000000" fill-rule="nonzero"/>
	</g>
	<g opacity="0.100000">
		<path id="Vector" d="M301.48 276.36C301.48 276.36 273.25 334.2 279.77 339.72C286.28 345.24 301.48 276.36 301.48 276.36Z" fill="#000000" fill-opacity="1.000000" fill-rule="nonzero"/>
	</g>
	<g opacity="0.100000">
		<path id="Vector" d="M340.41 233.73C340.41 233.73 362.97 289.92 358.46 298.6C353.95 307.27 368.15 298.6 368.15 298.6L340.41 233.73Z" fill="#000000" fill-opacity="1.000000" fill-rule="nonzero"/>
	</g>
	<path id="Vector" d="M371.82 289.23C371.82 289.23 295.64 292.91 317.86 316.65C340.09 340.39 385.69 317.66 385.69 317.66L371.82 289.23Z" fill="#FFB0B1" fill-opacity="1.000000" fill-rule="nonzero"/>
	<g opacity="0.100000">
		<path id="Vector" d="M360.8 63.54C360.81 69.01 359.73 74.42 357.64 79.47C356.94 79.55 356.24 79.6 355.57 79.63C354.56 77.42 355.1 74.87 355.12 72.43C355.14 70 354.24 67.14 351.9 66.48C347.23 65.17 344.01 73.9 339.41 72.32C335.88 71.12 336.8 65.77 334.77 62.68C333.17 60.24 329.95 59.55 327.44 58.01C322.12 54.74 322.28 49.51 319.81 44.56C317.22 39.38 311.75 40.91 307 43.97C303.4 46.3 300.28 49.42 296.43 51.27C293.09 52.88 289.34 53.47 285.63 53.56C283.35 53.64 281.07 53.4 278.87 52.84C281.46 43.06 287.53 34.56 295.93 28.93C304.33 23.29 314.49 20.91 324.52 22.22C334.55 23.53 343.76 28.44 350.43 36.04C357.11 43.65 360.79 53.42 360.79 63.54L360.8 63.54Z" fill="#000000" fill-opacity="1.000000" fill-rule="nonzero"/>
	</g>
	<path id="Vector" d="M307.02 42.64C303.41 44.96 300.3 48.08 296.44 49.94C293.1 51.55 289.35 52.13 285.65 52.22C281.12 52.32 276.24 51.52 273.14 48.25C270.29 45.23 269.61 40.57 270.82 36.61C272.02 32.64 274.91 29.35 278.29 26.97C281.69 24.58 285.62 22.94 287.86 19.52C289.05 17.72 289.63 15.59 290.61 13.67C293.77 7.53 300.87 4.21 307.74 3.79C314.6 3.38 321.41 5.42 327.94 7.64C334.48 9.86 341.07 12.3 347.97 12.76C351.04 12.95 354.23 12.76 357.08 13.92C360.92 15.48 363.43 19.2 365.14 22.99C367.06 27.27 368.25 31.93 368.05 36.6C367.63 46.56 361.05 56.34 363.94 65.88C364.71 68.43 366.14 71.04 365.38 73.58C364.26 77.3 359.47 78.14 355.6 78.32C354.59 76.11 355.13 73.55 355.15 71.12C355.17 68.69 354.27 65.82 351.94 65.17C347.26 63.86 344.04 72.58 339.45 71.01C335.95 69.8 336.85 64.46 334.82 61.37C333.21 58.92 329.99 58.23 327.49 56.7C322.17 53.43 322.33 48.2 319.85 43.25C317.25 38.04 311.77 39.57 307.02 42.64Z" fill="#575A89" fill-opacity="1.000000" fill-rule="nonzero"/>
	<path id="Vector" d="M233.14 234.39L229.3 235.74C229.3 235.74 230.81 258.47 225.77 264.99C220.74 271.51 242.31 287.73 242.31 287.73C242.31 287.73 271.88 287.56 272.72 285.21C273.56 282.85 271.21 243.08 271.21 243.08C271.21 243.08 255.34 236.89 256.67 227.03C256.67 227.03 251.83 250.26 244.64 249.26C237.46 248.26 229.31 242.26 233.14 234.39Z" fill="#E8F5FF" fill-opacity="1.000000" fill-rule="nonzero"/>
	<g opacity="0.100000">
		<path id="Vector" d="M256.1 247.02C256.1 252.14 251.56 256.29 245.96 256.29C240.36 256.29 235.82 252.14 235.82 247.02C235.82 241.89 240.36 237.74 245.96 237.74C251.56 237.74 256.1 241.89 256.1 247.02Z" fill="#000000" fill-opacity="1.000000" fill-rule="evenodd"/>
	</g>
	<path id="Vector" d="M257.04 235.07C257.04 235.07 255.03 173.55 237.49 187.25C219.96 200.96 219.78 217.35 223.12 222.19C226.46 227.04 237.17 251.28 237.17 251.28C238.84 252.25 240.73 252.81 242.66 252.92C244.59 253.02 246.52 252.66 248.29 251.88C250.06 251.09 251.62 249.9 252.84 248.39C254.05 246.89 254.9 245.11 255.3 243.22L257.04 235.07Z" fill="#FFB0B1" fill-opacity="1.000000" fill-rule="nonzero"/>
	<g opacity="0.100000">
		<path id="Vector" d="M366.44 79.24C366.35 78.96 366.2 78.72 365.98 78.54C365.12 77.75 363.25 77.47 360.44 77.71L360.56 79.04C364.3 78.72 365.05 79.47 365.14 79.59L365.14 79.72L365.26 79.89C365.72 80.51 366.05 81.23 366.23 82C366.4 82.76 366.41 83.55 366.26 84.32C365.44 88.43 360.4 91.7 360.35 91.73L360.23 91.8L360.16 91.92C357.98 95.15 345.68 104.27 342.46 106.62L342.18 106.3C340.74 107.55 328.07 118.64 327.39 122.89C326.95 125.56 323.94 126.59 322.86 126.88C321.71 126.01 317.98 123.04 316.04 119.71C314.22 116.58 321.54 110.47 322.19 108.09L321.18 107.06C321.07 107.44 311.68 116.23 314.29 120.72C316.38 124.32 320.21 127.41 321.55 128.42C321.12 132.31 318.46 155.16 314.37 160.57C309.28 167.3 305 201.2 305.48 213.04C305.89 223.56 303.15 243.42 293.98 251.95C292.4 253.49 290.48 254.66 288.38 255.35C286.28 256.05 284.06 256.27 281.86 255.98L281.75 255.98L281.64 255.98C281.51 255.98 268.21 257.34 257.04 247.92C247.9 240.23 242.72 227.67 241.65 210.58L241.43 210.58L241.33 205.61C243.81 205.22 246.05 203.89 247.56 201.89C249.08 199.89 249.76 197.38 249.47 194.89C249.17 192.4 247.93 190.12 245.99 188.52C244.05 186.93 241.57 186.16 239.07 186.36C236.56 186.56 234.24 187.72 232.58 189.6C230.92 191.48 230.05 193.93 230.15 196.44C230.26 198.95 231.33 201.31 233.15 203.05C234.97 204.78 237.38 205.74 239.89 205.73L240 205.73L240.09 210.67L239.65 210.7C240.76 228.34 246.19 241.38 255.76 249.44C263.04 255.47 272.33 258.51 281.76 257.95C282.42 258.03 283.1 258.06 283.77 258.06C288.09 258.09 292.25 256.41 295.35 253.4C305.01 244.41 307.94 223.81 307.49 212.94C306.98 200.4 311.47 167.71 315.97 161.76C320.38 155.92 323.06 133.16 323.53 128.75C325.12 128.3 328.73 126.89 329.35 123.21C329.79 120.55 338.25 112.35 343.45 107.81L343.29 107.63C346.09 105.58 354.8 99.13 359.12 94.99C360.46 93.7 361.79 92.42 363.18 91.19C364.85 89.71 366.97 87.36 367.53 84.58C367.72 83.66 367.72 82.71 367.54 81.79C367.35 80.87 366.97 80 366.44 79.24Z" fill="#000000" fill-opacity="1.000000" fill-rule="nonzero"/>
	</g>
	<path id="Vector" d="M321.38 128.11C321.17 127.96 316.15 124.37 313.64 120.04C311.03 115.55 320.43 106.77 320.53 106.39L321.54 107.42C320.9 109.8 313.58 115.91 315.4 119.04C317.69 122.98 322.51 126.43 322.56 126.47L321.38 128.11Z" fill="#353146" fill-opacity="1.000000" fill-rule="nonzero"/>
	<path id="Vector" d="M341.8 107.6L341.02 106.52C341.18 106.4 357 94.95 359.49 91.25L359.57 91.14L359.69 91.06C359.74 91.03 364.78 87.76 365.6 83.65C365.75 82.88 365.74 82.09 365.57 81.33C365.39 80.56 365.06 79.85 364.59 79.22L364.48 79.05L364.48 78.93C364.38 78.8 363.64 78.06 359.89 78.38L359.77 77.04C362.59 76.8 364.45 77.08 365.31 77.87C365.53 78.06 365.69 78.3 365.77 78.57C366.32 79.34 366.7 80.21 366.89 81.13C367.09 82.05 367.09 83 366.91 83.92C366.35 86.7 364.23 89.06 362.55 90.53C361.17 91.76 359.83 93.05 358.5 94.33C353.44 99.18 342.36 107.2 341.8 107.6Z" fill="#E8F5FF" fill-opacity="1.000000" fill-rule="nonzero"/>
	<path id="Vector" d="M239.35 203.88L240.68 203.86L240.83 211.97L239.5 212L239.35 203.88Z" fill="#E8F5FF" fill-opacity="1.000000" fill-rule="evenodd"/>
	<path id="Vector" d="M248.98 195.34C248.98 200.72 244.62 205.09 239.24 205.09C233.86 205.09 229.49 200.72 229.49 195.34C229.49 189.95 233.86 185.58 239.24 185.58C244.62 185.58 248.98 189.95 248.98 195.34Z" fill="#587EEC" fill-opacity="1.000000" fill-rule="evenodd"/>
	<path id="Vector" d="M247.33 195.34C247.33 199.81 243.71 203.43 239.24 203.43C234.77 203.43 231.15 199.81 231.15 195.34C231.15 190.86 234.77 187.24 239.24 187.24C243.71 187.24 247.33 190.86 247.33 195.34Z" fill="#E8F5FF" fill-opacity="1.000000" fill-rule="evenodd"/>
	<path id="Vector" d="M283.14 257.41C282.46 257.42 281.79 257.38 281.12 257.31C271.69 257.86 262.4 254.82 255.13 248.8C245.56 240.73 240.13 227.7 239.01 210.05L241.03 209.92C242.11 227.01 247.28 239.57 256.43 247.26C267.6 256.66 280.89 255.32 281.02 255.32L281.13 255.32L281.24 255.32C283.44 255.61 285.67 255.39 287.76 254.69C289.87 253.99 291.78 252.83 293.37 251.29C302.53 242.76 305.28 222.9 304.86 212.38C304.35 200.53 308.63 166.63 313.72 159.9C318.18 154.01 320.94 127.46 320.97 127.19L321.05 126.44L321.79 126.31C321.84 126.31 326.19 125.48 326.73 122.23C327.44 117.98 340.08 106.89 341.52 105.64L342.83 107.15C337.61 111.68 329.15 119.89 328.73 122.55C328.11 126.24 324.5 127.65 322.91 128.1C322.41 132.51 319.75 155.26 315.36 161.1C310.85 167.06 306.37 199.74 306.87 212.28C307.3 223.16 304.4 243.76 294.74 252.75C291.64 255.77 287.47 257.44 283.14 257.41Z" fill="#353146" fill-opacity="1.000000" fill-rule="nonzero"/>
	<g opacity="0.100000">
		<g opacity="0.100000">
			<path id="Vector" d="M365.09 51.63C365.92 48.57 366.91 45.5 367.61 42.4C366.78 45.51 365.78 48.57 365.09 51.63Z" fill="#000000" fill-opacity="1.000000" fill-rule="nonzero"/>
		</g>
		<g opacity="0.100000">
			<path id="Vector" d="M356.67 75.62C355.66 73.41 356.2 70.85 356.22 68.42C356.24 65.99 355.34 63.15 353 62.47C348.33 61.16 345.11 69.89 340.51 68.31C336.99 67.11 337.92 61.76 335.89 58.67C334.28 56.22 331.06 55.54 328.56 54C323.23 50.73 323.4 45.5 320.93 40.55C318.33 35.36 312.87 36.9 308.12 39.96C304.5 42.29 301.4 45.41 297.54 47.27C294.2 48.87 290.45 49.46 286.75 49.54C282.24 49.65 277.33 48.85 274.24 45.57C271.85 43.05 270.99 39.36 271.48 35.9C271.4 36.13 271.32 36.37 271.25 36.61C270.04 40.57 270.74 45.24 273.57 48.25C276.66 51.52 281.57 52.32 286.08 52.22C289.78 52.13 293.53 51.55 296.87 49.94C300.74 48.08 303.85 44.96 307.45 42.64C312.2 39.57 317.67 38.04 320.26 43.23C322.73 48.18 322.57 53.41 327.9 56.68C330.42 58.19 333.61 58.9 335.23 61.35C337.24 64.44 336.35 69.78 339.85 70.99C344.44 72.56 347.67 63.84 352.34 65.15C354.68 65.8 355.58 68.67 355.55 71.1C355.53 73.52 355 76.09 356 78.3C359.87 78.12 364.66 77.29 365.79 73.56C365.94 73.03 366.01 72.47 366 71.91C364.36 74.74 360.15 75.47 356.67 75.62Z" fill="#000000" fill-opacity="1.000000" fill-rule="nonzero"/>
		</g>
	</g>
	<g opacity="0.100000">
		<path id="Vector" d="M447.69 199.79L453.53 205.98C453.53 205.98 458.21 240.08 460.55 243.27C462.88 246.46 468.4 259.15 463.22 268.68C463.22 268.68 461.55 273.86 462.55 276.03C463.55 278.21 455.04 289.08 455.04 289.08C455.04 289.08 443.84 299.1 441.5 300.61C439.16 302.12 426.8 314.15 422.62 314.32C418.45 314.48 417.09 319.67 417.09 319.67L393.53 320.51C393.53 320.51 380.51 319.82 377.68 321.67C377.68 321.67 379.19 301.77 364.65 288.73L383.2 282.04C383.2 282.04 390.22 279.02 392.39 275.86C393.75 273.92 395.69 272.46 397.93 271.68C397.93 271.68 403.1 268 403.27 266C403.44 263.99 409.6 261.53 409.6 261.53L406.11 231.72L407.95 182.24C407.95 182.24 413.8 140.78 426.16 143.12C438.52 145.46 447.69 199.79 447.69 199.79Z" fill="#000000" fill-opacity="1.000000" fill-rule="nonzero"/>
	</g>
	<path id="Vector" d="M449.7 199.79L455.55 205.98C455.55 205.98 460.23 240.08 462.56 243.27C464.9 246.46 470.42 259.15 465.24 268.68C465.24 268.68 463.57 273.86 464.57 276.03C465.57 278.21 457.05 289.08 457.05 289.08C457.05 289.08 445.86 299.1 443.52 300.61C441.17 302.12 428.81 314.15 424.64 314.32C420.46 314.48 419.1 319.67 419.1 319.67L395.54 320.51C395.54 320.51 382.52 319.82 379.7 321.67C379.7 321.67 381.21 301.77 366.67 288.73L385.21 282.04C385.21 282.04 392.23 279.02 394.4 275.86C395.77 273.92 397.7 272.46 399.94 271.68C399.94 271.68 405.12 268 405.28 266C405.45 263.99 411.62 261.53 411.62 261.53L408.13 231.72L409.96 182.24C409.96 182.24 415.81 140.78 428.17 143.12C440.54 145.46 449.7 199.79 449.7 199.79Z" fill="#E8F5FF" fill-opacity="1.000000" fill-rule="nonzero"/>
	<g opacity="0.100000">
		<path id="Vector" d="M427.96 249.78C427.96 249.78 445.17 245.24 449.68 250.79C454.2 256.33 427.96 249.78 427.96 249.78Z" fill="#000000" fill-opacity="1.000000" fill-rule="nonzero"/>
	</g>
	<g opacity="0.100000">
		<path id="Vector" d="M423.95 257.38C429.8 261.48 447.85 261.65 447.85 261.65L423.95 257.38Z" fill="#000000" fill-opacity="1.000000" fill-rule="nonzero"/>
	</g>
	<g opacity="0.100000">
		<path id="Vector" d="M432.81 277.86C433.31 278.03 445.21 290.74 450.21 286.89C455.2 283.05 432.81 277.86 432.81 277.86Z" fill="#000000" fill-opacity="1.000000" fill-rule="nonzero"/>
	</g>
	<g opacity="0.100000">
		<path id="Vector" d="M272.53 171.2C272.53 171.2 276.03 195.28 274.31 205.09C272.58 214.89 278.87 227.04 278.87 227.04L272.53 171.2Z" fill="#000000" fill-opacity="1.000000" fill-rule="nonzero"/>
	</g>
	<path id="Vector" d="M195.16 180.99C191.13 184.15 188.19 191.63 186.06 199.85C182.34 214.19 181.13 230.81 181.13 230.81C181.13 230.81 149.05 223.45 151.38 220.11C152.85 218.01 150.88 202.18 149.23 190.7C148.25 183.92 147.37 178.65 147.37 178.65C147.37 178.65 206.19 172.3 195.16 180.99Z" fill="#FFB0B1" fill-opacity="1.000000" fill-rule="nonzero"/>
	<g opacity="0.100000">
		<path id="Vector" d="M195.16 180.32C191.13 183.49 188.19 190.96 186.06 199.18C179.67 201.12 172.87 201.3 166.38 199.69C159.9 198.08 153.97 194.74 149.23 190.03C148.25 183.25 147.37 177.98 147.37 177.98C147.37 177.98 206.19 171.63 195.16 180.32Z" fill="#000000" fill-opacity="1.000000" fill-rule="nonzero"/>
	</g>
	<path id="Vector" d="M212.4 162.31C212.4 171.08 209.31 179.56 203.66 186.26C198.02 192.96 190.18 197.45 181.55 198.93C172.91 200.4 164.03 198.78 156.48 194.33C148.93 189.89 143.2 182.92 140.29 174.65C137.38 166.38 137.49 157.35 140.6 149.15C143.71 140.96 149.61 134.13 157.27 129.87C164.93 125.61 173.84 124.21 182.44 125.89C191.03 127.58 198.76 132.25 204.24 139.09C209.52 145.68 212.4 153.87 212.4 162.31Z" fill="#FFB0B1" fill-opacity="1.000000" fill-rule="nonzero"/>
	<g opacity="0.100000">
		<path id="Vector" d="M241.65 394.4L231.08 394.4L230.18 375.71L229.25 356.37C229.25 356.37 231.65 356.01 235.48 355.47L237.03 355.27L237.15 355.27C237.99 359.19 238.82 363.22 239.61 367.25C240.94 374.4 241.63 381.65 241.67 388.92C241.67 389.42 241.67 389.93 241.67 390.4C241.7 391.75 241.67 393.09 241.65 394.4Z" fill="#000000" fill-opacity="1.000000" fill-rule="nonzero"/>
	</g>
	<path id="Vector" d="M239.62 394.4L106.99 394.4C107.56 393.1 107.94 392.31 107.94 392.31C107.94 392.31 118.56 345.85 123.95 326.2C123.95 326.18 123.95 326.17 123.95 326.15C124.62 323.48 125.44 320.85 126.39 318.26C126.45 318.09 126.53 317.92 126.62 317.76C129.29 313.42 132.64 308.73 127.96 302.05C123.28 295.36 124.94 265.94 124.94 265.94C124.94 265.94 130.62 240.86 136.63 227.48C137.54 225.41 138.84 223.53 140.45 221.94C140.97 221.43 141.53 220.95 142.12 220.52C142.57 220.18 143.04 219.87 143.52 219.58L143.62 219.52C146.14 218.09 148.95 217.22 151.84 216.97C153.89 216.75 155.97 216.81 158.01 217.14C167.76 218.57 175.57 220.97 181.77 223.69C198.59 231.08 203.68 240.99 203.78 241.2L203.82 241.28C204.49 242.86 214.37 265.92 217.92 276.68C218.84 279.48 219.35 281.45 219.15 281.99C218.14 284.66 226.83 318.1 226.83 318.1C226.83 318.1 230.86 334.22 234.89 353.13C235.06 353.91 235.23 354.7 235.39 355.49C236.11 358.93 236.83 362.42 237.52 365.92C238.85 373.11 239.54 380.41 239.58 387.74C239.65 390.02 239.67 392.24 239.62 394.4Z" fill="#EB5569" fill-opacity="1.000000" fill-rule="nonzero"/>
	<g opacity="0.100000">
		<path id="Vector" d="M151.05 205.47C151.05 205.47 141.9 201.94 142.01 207.29C142.12 212.65 144.24 215.21 143.57 215.99C142.9 216.77 143.9 221.45 143.9 221.45C143.9 221.45 156.27 221.45 161.95 224.01C167.63 226.57 188.57 231.7 191.24 233.26C193.92 234.82 203.83 241.83 203.83 241.83L204.73 228.56C204.73 228.56 194.48 220.09 177.66 215.75C160.85 211.41 151.05 205.47 151.05 205.47Z" fill="#000000" fill-opacity="1.000000" fill-rule="nonzero"/>
	</g>
	<path id="Vector" d="M151.05 204.8C151.05 204.8 141.9 201.27 142.01 206.62C142.12 211.98 144.24 214.54 143.57 215.32C142.9 216.1 143.9 220.78 143.9 220.78C143.9 220.78 156.27 220.78 161.95 223.34C167.63 225.91 188.57 231.03 191.24 232.59C193.92 234.15 203.83 241.16 203.83 241.16L204.74 227.93C204.74 227.93 194.49 219.46 177.67 215.12C160.86 210.78 151.05 204.8 151.05 204.8Z" fill="#EB5569" fill-opacity="1.000000" fill-rule="nonzero"/>
	<g opacity="0.100000">
		<path id="Vector" d="M178.67 236.72C178.67 236.72 196.16 255.66 195.27 260.91C194.38 266.15 178.67 236.72 178.67 236.72Z" fill="#000000" fill-opacity="1.000000" fill-rule="nonzero"/>
	</g>
	<g opacity="0.100000">
		<path id="Vector" d="M150.27 305.15C150.27 305.15 137.45 316.96 133.67 317.63C129.9 318.3 136.57 320.53 140.91 318.75C145.25 316.97 154.51 312.29 154.51 312.29L150.27 305.15Z" fill="#000000" fill-opacity="1.000000" fill-rule="nonzero"/>
	</g>
	<path id="Vector" d="M244.83 394.4L214.94 394.4C210.76 390.77 206.81 387.41 204.29 385.39C200.26 382.16 197.35 377.39 195.5 373.56C195.08 372.69 194.72 371.88 194.41 371.14C193.86 369.86 193.38 368.56 192.96 367.23L215.1 354.08C216.32 355.12 217.47 356.24 218.54 357.44L218.8 357.75C220.03 359.2 221.11 360.85 221.21 362.2C221.32 363.77 225.69 369.86 230.16 375.7C234.69 381.64 239.34 387.32 239.64 387.7C239.64 387.7 240.41 388.74 241.66 390.35C242.54 391.5 243.63 392.9 244.83 394.4Z" fill="#FFB0B1" fill-opacity="1.000000" fill-rule="nonzero"/>
	<g opacity="0.100000">
		<path id="Vector" d="M204.24 139.09C203.18 141.49 202.22 143.98 202.08 146.65C201.68 154.36 202.33 171.6 193.8 175.47C189.57 177.38 185.05 173.19 180.42 173.09C177.08 173.02 174.03 175.14 171.99 177.78C169.96 180.43 168.69 183.57 167.22 186.56C165.87 189.28 164.33 191.89 162.59 194.37C162.07 195.13 161.5 195.86 160.88 196.53C155.67 194.34 151.04 190.98 147.33 186.72C143.62 182.46 140.93 177.41 139.47 171.96C138 166.5 137.81 160.78 138.89 155.24C139.97 149.69 142.3 144.47 145.7 139.96C149.1 135.45 153.49 131.78 158.53 129.23C163.56 126.67 169.12 125.3 174.76 125.22C180.41 125.14 186 126.35 191.11 128.75C196.21 131.16 200.71 134.71 204.24 139.11L204.24 139.09Z" fill="#000000" fill-opacity="1.000000" fill-rule="nonzero"/>
	</g>
	<path id="Vector" d="M201.41 145.29C201.01 153 201.66 170.24 193.12 174.11C188.9 176.01 184.37 171.83 179.74 171.73C176.41 171.66 173.36 173.78 171.32 176.42C169.28 179.06 168.02 182.2 166.54 185.2C165.2 187.92 163.65 190.53 161.91 193.01C160.88 194.48 159.73 195.96 158.13 196.79C155.35 198.24 151.98 197.42 149 196.49C145.13 195.27 141.32 193.9 137.57 192.37C137.65 191.8 137.7 191.23 137.7 190.65C137.59 190.87 137.47 191.06 137.35 191.27L137.11 191.69C136.68 192.44 136.26 193.2 135.88 193.97C135.73 194.27 135.59 194.58 135.47 194.89C134.96 196.03 134.64 197.25 134.53 198.5C134.27 201.86 135.93 205.05 137.4 208.07C143.05 219.77 146.55 233.44 142.29 245.71C140.45 251.05 137.25 255.79 134.92 260.95C130.85 270.08 129.65 280.23 131.48 290.06C132.65 296.17 134.98 302.22 134.41 308.41C133.4 319.07 124.21 327 115.01 332.45C110.04 335.39 103.96 338 98.68 335.68C102.04 331.75 102.91 326.31 103.63 321.18C105.62 307.19 107.61 293.19 109.6 279.18C110.4 273.61 111.19 268.04 111.98 262.46C113.46 251.99 114.97 241.4 114.04 230.87C113.36 223.1 111.46 214.86 114.82 207.83C116.6 204.1 119.77 201.02 120.76 197.01C121.57 193.75 120.81 190.28 121.35 186.96C121.64 185.45 122.13 183.98 122.82 182.61C123.69 180.74 124.82 179 126.19 177.46C124.84 177.06 123.58 176.52 122.82 175.4C124.98 173.98 125.31 170.8 124.33 168.42C123.35 166.03 121.38 164.21 119.61 162.32C117.85 160.44 116.14 158.24 115.92 155.67C115.49 150.78 120.38 146.99 121.24 142.16C122.11 137.25 118.67 132.47 118.94 127.5C119.27 121.48 124.79 117.12 130.24 114.58C138.46 110.77 147.54 109.21 156.56 110.05C163.91 110.74 171.01 113.01 178.34 113.9C182.75 114.4 187.23 114.45 191.62 115.23C196 116 200.4 117.64 203.49 120.86C211.63 129.35 201.88 136.34 201.41 145.29Z" fill="#575A89" fill-opacity="1.000000" fill-rule="nonzero"/>
	<g opacity="0.100000">
		<path id="Vector" d="M194.6 373.57C192.03 372.46 187.36 373.12 179.34 370.68C171.32 368.23 169.77 357.19 169.77 357.19L169.77 357.15C169.67 356.9 168.93 355.26 163.88 349.5C158.31 343.15 146.25 311.05 146.25 311.05C146.25 311.05 135.57 299.57 135.91 295.33C136.24 291.1 134.01 279.84 134.23 267.24C134.45 254.64 158.29 246.29 158.29 246.29C204.18 238.15 193.37 291.09 192.15 295.1C190.93 299.11 197.28 309.95 197.28 309.95C196.38 314.67 200.95 321.97 200.95 321.97C200.95 321.97 202.06 328.43 202.29 330.88C202.3 331 202.33 331.11 202.36 331.21C203.1 333.53 209.09 335.62 211.53 336.9C214.09 338.24 222.34 349.94 222.34 349.94C224.12 358.53 197.16 374.7 194.6 373.57Z" fill="#000000" fill-opacity="1.000000" fill-rule="nonzero"/>
	</g>
	<path id="Vector" d="M195.94 371.55C193.37 370.44 188.7 371.11 180.68 368.66C172.66 366.21 171.11 355.17 171.11 355.17L171.11 355.14C171.02 354.88 170.27 353.24 165.22 347.49C159.65 341.13 147.6 309.03 147.6 309.03C147.6 309.03 136.91 297.55 137.24 293.32C137.57 289.09 135.35 277.82 135.57 265.24C135.79 252.65 159.61 244.3 159.61 244.3C205.51 236.16 194.7 289.1 193.48 293.11C192.25 297.12 198.6 307.96 198.6 307.96C197.71 312.67 202.28 319.98 202.28 319.98C202.28 319.98 203.39 326.44 203.62 328.89C203.63 329 203.65 329.12 203.69 329.22C204.42 331.54 210.42 333.63 212.86 334.91C215.42 336.24 223.67 347.95 223.67 347.95C225.46 356.53 198.5 372.69 195.94 371.55Z" fill="#EB5569" fill-opacity="1.000000" fill-rule="nonzero"/>
	<g opacity="0.100000">
		<path id="Vector" d="M160.52 271.94C160.52 271.94 180.57 293.1 185.8 293.1C191.03 293.1 160.52 271.94 160.52 271.94Z" fill="#000000" fill-opacity="1.000000" fill-rule="nonzero"/>
	</g>
	<path id="Vector" d="M195.94 371.55C193.37 370.44 188.7 371.11 180.68 368.66C172.66 366.21 171.11 355.17 171.11 355.17L171.11 355.14C176.42 351.61 189.88 341.65 195.18 338C198.91 335.45 201.96 331.69 203.74 329.2C204.48 331.52 210.47 333.61 212.92 334.89C215.47 336.22 223.72 347.93 223.72 347.93C225.46 356.53 198.5 372.69 195.94 371.55Z" fill="#FF748E" fill-opacity="1.000000" fill-rule="nonzero"/>
	<g opacity="0.100000">
		<g opacity="0.100000">
			<path id="Vector" d="M122.85 175.45C122.87 175.49 122.91 175.53 122.94 175.57C123.09 175.37 123.24 175.18 123.41 175C123.23 175.17 123.05 175.32 122.85 175.45Z" fill="#000000" fill-opacity="1.000000" fill-rule="nonzero"/>
		</g>
		<g opacity="0.100000">
			<path id="Vector" d="M134.53 198.55C134.74 195.75 136.24 193.29 137.64 190.83C136.72 190.48 135.81 190.12 134.9 189.75C134.99 189.18 135.03 188.61 135.03 188.04C133.61 190.56 132.07 193.04 131.86 195.87C131.6 199.24 133.26 202.43 134.73 205.45C140.39 217.14 143.88 230.82 139.62 243.09C137.77 248.42 134.59 253.17 132.25 258.33C128.18 267.46 126.98 277.61 128.82 287.44C129.97 293.55 132.31 299.59 131.74 305.79C130.73 316.44 121.55 324.38 112.34 329.82C108.58 332.05 104.18 334.09 99.98 333.95C99.59 334.57 99.15 335.17 98.68 335.73C103.96 338.07 110.04 335.44 115.01 332.5C124.22 327.06 133.42 319.15 134.43 308.47C135 302.27 132.67 296.23 131.51 290.12C129.67 280.29 130.87 270.14 134.93 261.01C137.25 255.86 140.47 251.11 142.3 245.77C146.56 233.5 143.06 219.82 137.41 208.13C135.94 205.09 134.27 201.92 134.53 198.55Z" fill="#000000" fill-opacity="1.000000" fill-rule="nonzero"/>
		</g>
		<g opacity="0.100000">
			<path id="Vector" d="M203.48 120.92C202.98 120.41 202.45 119.94 201.89 119.51C207.99 127.43 199.18 134.16 198.74 142.69C198.35 150.4 198.99 167.64 190.45 171.5C186.23 173.41 181.71 169.23 177.08 169.13C173.74 169.06 170.69 171.18 168.65 173.82C166.61 176.46 165.35 179.61 163.88 182.6C162.53 185.32 160.98 187.93 159.24 190.41C158.24 191.89 157.06 193.36 155.46 194.19C152.69 195.64 149.32 194.83 146.33 193.89C143.43 192.98 140.55 191.97 137.7 190.87C137.69 191.39 137.65 191.91 137.57 192.43C141.32 193.96 145.14 195.34 149 196.55C151.99 197.49 155.36 198.3 158.13 196.86C159.73 196.03 160.89 194.55 161.92 193.07C163.66 190.59 165.2 187.98 166.55 185.27C168.03 182.27 169.28 179.12 171.32 176.48C173.37 173.84 176.41 171.73 179.75 171.8C184.38 171.9 188.91 176.08 193.13 174.17C201.66 170.31 201.01 153.07 201.41 145.36C201.88 136.39 211.63 129.41 203.48 120.92Z" fill="#000000" fill-opacity="1.000000" fill-rule="nonzero"/>
		</g>
	</g>
	<g opacity="0.100000">
		<path id="Vector" d="M137.11 191.69C136.69 192.45 136.27 193.2 135.89 193.98C135.74 194.28 135.6 194.58 135.47 194.89C132.83 192.23 126.41 185.91 122.82 183.95C123.69 182.08 124.83 180.34 126.2 178.8C126.2 178.8 134.74 183.32 137.11 191.69Z" fill="#000000" fill-opacity="1.000000" fill-rule="nonzero"/>
	</g>
	<path id="Vector" d="M137.35 191.28C135.37 182.31 126.2 177.46 126.2 177.46C124.83 179.01 123.69 180.74 122.82 182.61C126.6 184.68 133.57 191.63 135.89 193.98L137.35 191.28Z" fill="#EB5569" fill-opacity="1.000000" fill-rule="nonzero"/>
</svg>
